<?xml version="1.0" encoding="UTF-8" standalone="no"?>
<svg
   width="81.315681mm"
   height="78.479187mm"
   viewBox="0 0 81.315681 78.479187"
   version="1.1"
   id="svg14"
   sodipodi:docname="pakil.svg"
   xmlns:inkscape="http://www.inkscape.org/namespaces/inkscape"
   xmlns:sodipodi="http://sodipodi.sourceforge.net/DTD/sodipodi-0.dtd"
   xmlns="http://www.w3.org/2000/svg"
   xmlns:svg="http://www.w3.org/2000/svg">
  <defs
     id="defs14" />
  <sodipodi:namedview
     id="namedview14"
     pagecolor="#ffffff"
     bordercolor="#000000"
     borderopacity="0.25"
     inkscape:showpageshadow="2"
     inkscape:pageopacity="0.0"
     inkscape:pagecheckerboard="0"
     inkscape:deskcolor="#d1d1d1"
     inkscape:document-units="mm" />
  <desc
     id="desc1">Outline to SVG export</desc>
  <g
     id="g1">
    <path
       fill-rule="evenodd"
       fill="#1d0b20"
       stroke="#555555"
       stroke-width="0"
       opacity="1"
       d="m 58.261269,18.190432 v 0 l 0.05398,0.123376 h 10e-7 v 10e-7 l 0.08482,0.115664 10e-7,10e-7 v 1e-6 1e-6 h 1e-6 v 10e-7 1e-6 1e-6 l -0.0077,0.262177 v 0 0 l 0.592215,0.01851 h 1e-6 10e-7 l 10e-7,10e-7 0.2776,0.101786 1e-6,1e-6 h 10e-7 l 1e-6,1e-6 0.212828,0.175814 0.259098,0.212828 v 0 l 0.175816,0.166563 v 0 0 l 0.148052,0.08328 v 1e-6 0 l 0.240589,-0.0093 v 0 0 L 60.50215,19.30234 h 10e-7 l 1e-6,-1e-6 h 10e-7 l 0.342374,-0.09253 10e-7,-1e-6 h 1e-6 l 0.259093,-0.01851 h 10e-7 0.148051 v 0 h 10e-7 l 0.185068,-0.240585 10e-7,-1e-6 1e-6,-1e-6 v 0 l 10e-7,-10e-7 0.296105,-0.166561 h 1e-6 l 10e-7,-1e-6 h 1e-6 10e-7 l 0.231332,-0.0185 v 0 h 10e-7 l 0.231333,-0.120294 10e-7,-1e-6 h 1e-6 l 0.203573,-0.05552 h 10e-7 l 1e-6,-10e-7 h 10e-7 0.157302 10e-7 l 1e-6,10e-7 h 10e-7 10e-7 v 0 l 1e-6,1e-6 0.194318,0.120293 h 1e-6 v 0 l 0.305365,0.11104 h 1e-6 l 10e-7,1e-6 0.249836,0.148052 h 10e-7 l 10e-7,1e-6 h 1e-6 v 10e-7 l 10e-7,1e-6 v 1e-6 l 0.231333,0.434909 h 1e-6 l 0.15731,0.249841 v 10e-7 0 l 0.175815,0.203575 h 1e-6 l 0.175811,0.175815 h 10e-7 l 0.212829,0.166561 v 0 0 l 0.37014,0.08328 v 0 0 h 0.370132 v 0 h 10e-7 l 0.120291,-0.1388 10e-7,-1e-6 10e-7,-10e-7 v 0 l 0.148053,-0.09253 v -1e-6 h 10e-7 10e-7 1e-6 l 10e-7,-1e-6 h 10e-7 l 0.2776,0.0093 h 10e-7 l 0.342376,0.02776 v 0 0 l 0.175812,-0.07403 v 0 0 l 0.222084,-0.157306 v 0 -1e-6 l 0.194321,-0.222081 v -1e-6 l 0.203573,-0.231332 v -1e-6 h 10e-7 l 10e-7,-1e-6 h 10e-7 l 1e-6,-10e-7 v 0 l 0.2776,-0.08328 h 10e-7 10e-7 l 0.555205,-0.07403 v 0 0 l 0.185066,-0.11104 v 0 0 l 0.240593,-0.203575 v 0 0 l 0.101783,-0.259092 10e-7,-1e-6 v -1e-6 l 10e-7,-10e-7 v -1e-6 l 0.305365,-0.314613 10e-7,-10e-7 0.185064,-0.157306 10e-7,-10e-7 v -1e-6 h 10e-7 10e-7 l 1e-6,-1e-6 0.2776,-0.04627 h 10e-7 1e-6 0.37013 10e-7 l 2e-6,1e-6 0.342375,0.08328 v 0 0 l 0.360886,0.0093 v 0 l 0.499679,-0.01851 h 10e-7 l 0.268348,-0.03702 v 0 0 l 0.296112,-0.222082 v 0 0 l 0.231338,-0.360881 h 10e-7 v -10e-7 l 0.259092,-0.277601 10e-7,-1e-6 h 1e-6 l 10e-7,-10e-7 h 10e-7 l 0.37938,-0.166561 h 10e-7 1e-6 10e-7 10e-7 10e-7 10e-7 v 0 h 10e-7 l 1e-6,1e-6 h 10e-7 l 0.185059,0.111036 h 10e-7 l 10e-7,1e-6 1e-6,10e-7 v 0 l 10e-7,1e-6 v 1e-6 l 0.05709,0.114169 v 0 0 l 0.312019,-0.03896 v 0 l 0.325393,-0.05165 h 10e-7 v 0 l 0.251678,-0.08568 v 0 0 l 0.369491,-0.203491 h 1e-6 l 0.787185,-0.551563 10e-7,-1e-6 0.546211,-0.305232 v -1e-6 l 0.348075,-0.187423 h 10e-7 l 0.471235,-0.17136 h 10e-7 1e-6 10e-7 l 0.321291,-0.02142 h 10e-7 10e-7 10e-7 10e-7 l 1e-6,1e-6 h 10e-7 l 10e-7,10e-7 h 10e-7 l 0.155292,0.149936 h 10e-7 v 0 l 0.246322,0.117811 v 0 0 l 0.251694,0.07497 v 0 0 l 0.348068,0.01607 v 0 l 0.278458,0.02142 v 0 0 l 0.23027,-0.123165 v 0 0 l 0.187424,-0.174036 v 0 0 l -0.169577,-0.11156 h -10e-7 v -10e-7 h -10e-7 l -10e-7,-1e-6 -0.15172,-0.214191 v -10e-7 l -10e-7,-1e-6 v -10e-7 -1e-6 l -10e-7,-10e-7 v -1e-6 0 -10e-7 l 10e-7,-10e-7 v -1e-6 -10e-7 l 10e-7,-1e-6 v -10e-7 l 1e-6,-1e-6 0.111552,-0.129405 v 0 -1e-6 l 0.04909,-0.133874 v 0 0 l -0.02231,-0.21866 v -10e-7 0 l -0.08925,-0.151724 -10e-7,-1e-6 v -10e-7 l -0.09817,-0.281133 -10e-7,-10e-7 v -1e-6 -10e-7 l -0.0045,-0.165108 v -10e-7 -1e-6 -10e-7 l 10e-7,-1e-6 v 0 l 0.08925,-0.20081 v 0 h -10e-7 l -0.08032,-0.116024 v 0 0 l -0.187421,-0.151722 -10e-7,-10e-7 h -10e-7 v -1e-6 l -10e-7,-10e-7 v -1e-6 l -0.08925,-0.218657 v -1e-6 -10e-7 l -10e-7,-1e-6 v -10e-7 l 10e-7,-1e-6 v -10e-7 l 0.05355,-0.227582 10e-7,-10e-7 v -1e-6 -10e-7 L 77.040601,13.2904 v 0 l 1e-6,-10e-7 10e-7,-1e-6 v -10e-7 l 0.227583,-0.18296 10e-7,-10e-7 h 10e-7 l 0.205275,-0.102638 v 0 0 l 0.04463,-0.191887 v 0 0 l 0.01339,-0.303447 v -10e-7 l -0.01339,-0.307912 v 0 l -10e-7,-1e-6 -0.08478,-0.12941 -10e-7,-10e-7 v -10e-7 -1e-6 l -0.05801,-0.214195 v -10e-7 l -10e-7,-1e-6 v -10e-7 l 10e-7,-10e-7 v -1e-6 l 0.04908,-0.236474 10e-7,-1e-6 v 0 l 1e-6,-10e-7 v -10e-7 l 10e-7,-1e-6 v -10e-7 h 10e-7 l 10e-7,-1e-6 h 10e-7 l 10e-7,-10e-7 h 1e-6 10e-7 l 10e-7,-1e-6 h 10e-7 l 10e-7,1e-6 h 1e-6 v 0 h 10e-7 l 10e-7,10e-7 h 10e-7 l 10e-7,1e-6 10e-7,10e-7 v 0 l 1e-6,1e-6 v 10e-7 l 10e-7,10e-7 0.06693,0.18739 v 10e-7 l 0.08478,0.160649 v 10e-7 h 10e-7 l 0.133872,0.151725 v 0 h 10e-7 l 0.178497,0.111561 v 0 0 l 0.200813,0.06694 v 0 -10e-7 l 0.02677,-0.18296 10e-7,-1e-6 v -10e-7 -1e-6 l 10e-7,-10e-7 0.06694,-0.102635 10e-7,-1e-6 v 0 l 10e-7,-10e-7 0.187422,-0.156184 h 10e-7 l 0.249899,-0.174037 1e-6,-1e-6 h 10e-7 v 0 l 10e-7,-10e-7 0.240973,-0.05801 v 0 l 0.205276,-0.07586 v 0 h 1e-6 l 0.133872,-0.156187 v 0 l 0.142799,-0.205273 v -10e-7 l 10e-7,-10e-7 10e-7,-1e-6 0.196349,-0.147261 0.160644,-0.120487 v 0 -1e-6 l 0.111565,-0.142801 v 0 0 l -0.04462,-0.09371 v -10e-7 h -10e-7 l -0.258819,-0.209737 v -10e-7 l -0.223129,-0.214198 v -1e-6 L 79.062124,10.05956 v 0 0 l -0.124943,0.01339 h -10e-7 -10e-7 l -10e-7,-1e-6 h -10e-7 -1e-6 -10e-7 v -10e-7 l -0.218661,-0.1338697 -10e-7,-5e-7 -10e-7,-5e-7 v -7e-7 l -10e-7,-7e-7 v -7e-7 l -1e-6,-8e-7 -0.08925,-0.1740319 -10e-7,-8e-7 v -9e-7 -9e-7 -9e-7 l -0.01785,-0.1829616 v -9e-7 -9e-7 l 0.01785,-0.2141962 v -10e-7 -9e-7 -9e-7 l 10e-7,-9e-7 0.05801,-0.1160189 10e-7,-9e-7 v -9e-7 l 10e-7,-8e-7 0.182959,-0.1829629 10e-7,-6e-7 0.187422,-0.1561843 10e-7,-5e-7 10e-7,-5e-7 0.249897,-0.1427994 10e-7,-4e-7 10e-7,-3e-7 1e-6,-3e-7 10e-7,-2e-7 10e-7,-1e-7 h 10e-7 l 0.205266,0.00892 v 0 h 0.464103 10e-7 l 0.374854,-0.026774 v 0 L 80.7891,8.7118877 h 10e-7 l 0.392699,-0.00446 v 0 l 10e-7,-10e-8 0.133872,-0.075865 v -1e-7 -2e-7 -0.1249951 -2e-7 -2e-7 L 80.811439,7.896349 79.900016,6.8090363 v -10e-8 L 78.764732,5.4818746 v -3e-7 L 77.789344,4.2666436 v -1e-7 L 76.829948,3.1473504 v -2e-7 l -1.694931,-2.046707 v -10e-8 L 74.250252,1.9573852e-7 V 1.2953078e-8 2.773305e-8 L 74.130326,0.01332471 l -10e-7,4e-8 v 1.8e-7 l -0.306472,0.38642425 -10e-7,1.08e-6 -0.639594,0.59961637 -10e-7,2.6e-7 -0.906089,0.78617461 v 1e-7 l -1.065994,0.8927649 -10e-7,10e-8 -0.7462,0.6795728 v 4e-7 l -3.344559,2.7182824 v 1e-7 3e-7 l 0.0077,0.1773561 v 7e-7 l -0.0077,0.3161572 v 7e-7 8e-7 l -0.03084,0.1696417 -10e-7,9e-7 v 9e-7 9e-7 l -1e-6,8e-7 v 8e-7 l -10e-7,7e-7 -0.208204,0.2236225 -10e-7,1e-6 -0.246755,0.2004893 -10e-7,6e-7 -10e-7,4e-7 v 4e-7 l -10e-7,4e-7 -0.239042,0.077111 -1e-6,1e-7 v 2e-7 l -0.154228,0.1696449 v 2e-7 2e-7 0.254469 5e-7 l -0.01542,0.2930237 v 1e-6 9e-7 1e-6 l -10e-7,9e-7 -0.0694,0.1465087 -10e-7,1.1e-6 -0.262176,0.4009828 v 9e-7 l -0.246755,0.3007339 -10e-7,7e-7 v 6e-7 l -10e-7,6e-7 -1e-6,5e-7 -10e-7,4e-7 -10e-7,4e-7 -10e-7,2e-7 v 2e-7 l -0.239048,0.030843 -10e-7,10e-8 -0.192779,0.05398 v 10e-8 2e-7 l -0.185066,0.2236229 v 2e-7 2e-7 l -0.123375,0.2776027 v 4e-7 l -0.08482,0.2621787 -10e-7,9e-7 v 9e-7 l -10e-7,9e-7 -0.154216,0.2159079 -10e-7,7e-7 v 7e-7 l -10e-7,6e-7 -10e-7,5e-7 v 5e-7 l -10e-7,4e-7 -1e-6,3e-7 -10e-7,3e-7 -10e-7,10e-8 h -10e-7 -10e-7 l -0.269891,-0.023134 h -10e-7 v 0 l -0.169647,0.023134 v 0 2e-7 l -0.02313,0.1542226 v 0 l -0.0077,0.169643 v 1e-6 0 10e-7 l -10e-7,1e-6 v 10e-7 10e-7 l -0.07712,0.115665 v 0 l -0.09253,0.146511 v 0 l -0.223623,0.370132 v 0 l -10e-7,1e-6 v 10e-7 h -1e-6 l -10e-7,1e-6 h -10e-7 l -1e-6,10e-7 h -10e-7 -10e-7 -1e-6 l -0.262174,0.01542 h -10e-7 v 0 l -0.03856,0.208202 v 0 l -0.05398,0.370136 v 1e-6 0 l 0.0077,0.2082 v 0 l 0.02314,0.323864 v 10e-7 1e-6 0 10e-7 10e-7 l -10e-7,1e-6 v 10e-7 l -10e-7,1e-6 h -1e-6 v 10e-7 l -10e-7,1e-6 h -10e-7 l -1e-6,10e-7 h -10e-7 l -0.231326,0.0694 h -10e-7 v 10e-7 l -0.200492,0.14651 v 0 l -10e-7,10e-7 -0.06169,0.13109 -0.04627,0.100246 h -1e-6 l -0.115667,0.22362 v 10e-7 h -1e-6 v 1e-6 l -10e-7,10e-7 h -10e-7 l -1e-6,10e-7 h -10e-7 v 1e-6 l -0.246753,0.08482 h -1e-6 -10e-7 l -0.262179,0.04627 h -10e-7 v 10e-7 l -0.269893,0.14651 v 0 1e-6 l -0.200489,0.347003 v 1e-6 l -0.123377,0.262178 -10e-7,10e-7 v 10e-7 l -1e-6,1e-6 -10e-7,10e-7 h -10e-7 v 1e-6 h -1e-6 l -0.339291,0.161932 v 10e-7 h -1e-6 l -0.339286,0.09254 v 0 L 60.6363,13.903017 v 0 0 l -0.08482,0.115667 v 10e-7 0 l -0.146506,0.308443 v 10e-7 l -1e-6,1e-6 v 10e-7 h -10e-7 l -10e-7,1e-6 v 10e-7 h -1e-6 l -0.177357,0.08482 h -10e-7 L 59.8729,14.527618 h -1e-6 -10e-7 v 0 l -0.300734,0.01542 h -10e-7 v 0 l -0.123374,0.115667 v 1e-6 0 0.2082 0 l 0.01542,0.169645 h 1e-6 v 1e-6 l 0.06169,0.123372 v 10e-7 l 10e-7,1e-6 v 10e-7 1e-6 10e-7 10e-7 1e-6 l -10e-7,10e-7 v 1e-6 10e-7 l -10e-7,1e-6 -0.0771,0.10024 -1e-6,10e-7 h -10e-7 v 1e-6 h -10e-7 l -0.107954,0.0694 v 0 l -1e-6,10e-7 -0.107955,0.185067 v 0 1e-6 l -0.02314,0.215913 v 0 0 l 0.09254,0.223623 10e-7,1e-6 0.07711,0.246756 v 10e-7 1e-6 1e-6 10e-7 2e-6 l -0.0694,0.308444 v 0 l -0.06169,0.408692 v 10e-7 l -10e-7,1e-6 v 0 l -0.131087,0.269889 v 1e-6 l -10e-7,1e-6 -1e-6,1e-6 -0.285309,0.293021 h -10e-7 l -1e-6,10e-7 v 1e-6 h -10e-7 -10e-7 l -1e-6,1e-6 -0.231332,0.05398 v 0 0 l -0.200493,0.215913 v 1e-6 l -0.131088,0.185066 v 0 0 l -0.0077,0.25447 z"
       id="path1" />
  </g>
  <g
     id="g2">
    <path
       fill-rule="evenodd"
       fill="#0a1607"
       stroke="#555555"
       stroke-width="0"
       opacity="1"
       d="m 51.276493,28.9907 v 0 l 0.616894,1.041008 v 0 l 0.385559,0.508937 v 10e-7 l 0.308445,0.439536 v 1e-6 0 l 0.173504,0.174785 v 0 l 0.25061,0.257038 v 0 0 l 0.195179,-0.172342 v 0 l 0.102634,-0.111562 1e-6,-10e-7 0.232051,-0.205274 h 10e-7 l 0.276675,-0.21866 10e-7,-1e-6 0.178496,-0.124949 v -1e-6 h 10e-7 10e-7 l 0.355329,-0.102012 10e-7,-1e-6 h 10e-7 l 0.337584,-0.03777 h 1e-6 l 0.328658,1.03e-4 h 2e-6 l 0.348684,0.04898 h 10e-7 v 0 h 1e-6 l 0.355329,0.144351 10e-7,10e-7 h 1e-6 l 0.244288,0.177665 h 1e-6 l 10e-7,1e-6 0.222079,0.255393 v 0 0 l 0.196166,-0.05182 h 10e-7 1e-6 10e-7 1e-6 10e-7 10e-7 1e-6 v 1e-6 h 10e-7 l 10e-7,1e-6 1e-6,10e-7 v 0 l 10e-7,1e-6 v 1e-6 l 10e-7,10e-7 v 1e-6 1e-6 1e-6 l 1e-6,10e-7 v 0.09992 0 0 l 0.09994,0.255394 v 0 0 l 0.310913,0.05552 v 0 0 l 0.233188,-0.05552 h 10e-7 v 0 l 0.288694,-0.144349 h 10e-7 l 1e-6,-1e-6 h 10e-7 10e-7 1e-6 v 0 h 10e-7 10e-7 l 1e-6,1e-6 h 10e-7 l 10e-7,1e-6 h 1e-6 v 10e-7 l 10e-7,1e-6 1e-6,1e-6 v 0 l 10e-7,10e-7 0.07772,0.199863 v 0 0 l 0.233184,0.155458 10e-7,1e-6 v 0 l 0.477477,0.166561 h 10e-7 l 0.499679,0.11104 v 0 l 0.532997,0.144352 v 0 h 1e-6 l 0.466056,-0.707567 v -1e-6 l 0.268349,-0.49043 v 0 l 0.397895,-0.768033 1e-6,-1e-6 v -1e-6 h 10e-7 l 0.222083,-0.222081 v -10e-7 l 0.277603,-0.240586 v -1e-6 0 l 0.175812,-0.286855 v 0 -1e-6 l 0.09254,-0.453416 v 0 0 l -0.0093,-0.268349 v 0 0 l -0.09254,-0.194321 v -1e-6 l -10e-7,-10e-7 v 0 -1e-6 l -0.0185,-0.194315 v -1e-6 l 10e-7,-1e-6 v -10e-7 -1e-6 -1e-6 l 1e-6,-1e-6 v -10e-7 l 0.09253,-0.129543 1e-6,-10e-7 10e-7,-1e-6 v 0 l 0.249842,-0.175815 h 10e-7 l 0.296104,-0.259096 v 0 0 l 0.21283,-0.333122 v 0 l 0.249841,-0.462668 10e-7,-1e-6 v 0 l 1e-6,-1e-6 10e-7,-10e-7 h 1e-6 v -1e-6 h 10e-7 l 10e-7,-1e-6 0.296104,-0.08328 h 1e-6 v 0 l 0.425659,-0.240589 v 0 0 l 0.259094,-0.212828 v 0 0 l 0.259094,-0.314617 v 0 0 l 0.166561,-0.305363 v 0 0 l 0.138798,-0.38864 v -10e-7 l 10e-7,-1e-6 0.175818,-0.268349 10e-7,-1e-6 v 0 l 0.22208,-0.222082 v 0 l 0.25909,-0.249839 v -1e-6 h 10e-7 l 0.388648,-0.268348 v 0 l 0.305366,-0.203575 h 10e-7 v -10e-7 l 0.138793,-0.166562 1e-6,-10e-7 v 0 l 0.185073,-0.360883 1e-6,-1e-6 0.268348,-0.425655 v 0 l 0.277603,-0.462671 v 0 l 0.157308,-0.31461 v 0 l 1e-6,-1e-6 10e-7,-1e-6 v -1e-6 h 10e-7 l 10e-7,-10e-7 h 10e-7 l 10e-7,-1e-6 h 1e-6 10e-7 10e-7 0.268335 v 0 0 l 0.185073,-0.09254 h 10e-7 v 0 l 0.02775,-0.194322 v -1e-6 l 0.07403,-0.360881 v -1e-6 l 0.03701,-0.360883 1e-6,-10e-7 v -1e-6 0 -1e-6 l 10e-7,-10e-7 0.07403,-0.120289 h 10e-7 l 1e-6,-1e-6 v -1e-6 l 10e-7,-1e-6 h 10e-7 l 0.555204,-0.296109 v 0 l 0.462669,-0.277601 v 0 l 0.351631,-0.249842 h 10e-7 l 0.138793,-0.111036 h 10e-7 l 1e-6,-1e-6 h 10e-7 10e-7 l 10e-7,-1e-6 h 10e-7 10e-7 1e-6 10e-7 v 1e-6 h 10e-7 l 10e-7,1e-6 h 10e-7 l 1e-6,1e-6 h 10e-7 v 10e-7 l 0.09253,0.120286 v 1e-6 0 h 0.166557 v 0 h 10e-7 l 0.31462,-0.138802 v 0 l 0.434906,-0.240589 v 0 l 0.305359,-0.194321 v 0 0 l 0.06477,-0.277603 0.04627,-0.20357 v -1e-6 -1e-6 l 10e-7,-1e-6 v 0 l 1e-6,-10e-7 10e-7,-1e-6 v -1e-6 h 10e-7 l 10e-7,-10e-7 h 10e-7 l 0.24058,-0.101787 v 0 l 10e-7,-1e-6 0.323865,-0.08328 h 10e-7 10e-7 1e-6 10e-7 v 0 l 0.166563,0.03701 v 0 0 l 0.286857,0.0093 h 10e-7 v 0 l 0.333122,-0.203573 v 0 0 l 0.305359,-0.259096 v 0 l 0.231338,-0.194321 v 0 l 0.138802,-0.120294 v 0 0 l 0.01851,-0.194321 v 0 l 0.02775,-0.157306 v -1e-6 h 10e-7 v -10e-7 -1e-6 l 10e-7,-1e-6 v -1e-6 l 0.129545,-0.148051 10e-7,-1e-6 v 0 l 0.212829,-0.166561 v 0 0 l 0.03702,-0.203572 v -1e-6 -10e-7 -1e-6 h 10e-7 v -1e-6 l 10e-7,-10e-7 0.09253,-0.101785 v 0 -1e-6 l -0.08328,-0.16656 v -1e-6 0 l -0.185066,-0.11104 v 0 h -10e-7 l -0.379386,0.166563 v 0 1e-6 l -0.259094,0.277602 v 1e-6 h -10e-7 l -0.231337,0.36088 -1e-6,1e-6 v 0 l -10e-7,1e-6 v 0 l -0.296109,0.22208 h -10e-7 l -10e-7,1e-6 h -10e-7 l -10e-7,1e-6 h -1e-6 l -0.268345,0.03702 h -10e-7 l -0.499679,0.01851 h -10e-7 l -0.360884,-0.0093 h -10e-7 -1e-6 l -0.342375,-0.08328 h -1e-6 v 0 h -0.370132 v 0 0 l -0.277603,0.04627 v 0 0 l -0.185066,0.157308 -10e-7,1e-6 -0.305366,0.314614 v 1e-6 0 l -0.101783,0.259092 v 0 l -10e-7,1e-6 v 10e-7 l -1e-6,1e-6 -10e-7,1e-6 -0.24059,0.203572 -10e-7,1e-6 v 0 l -0.185064,0.111039 -10e-7,10e-7 h -1e-6 -10e-7 -10e-7 l -0.203573,0.02776 v 0 l -0.351631,0.04627 v 0 0 l -0.277603,0.08328 v 0 h -10e-7 l -0.203574,0.231334 -0.19432,0.222082 -1e-6,10e-7 h -10e-7 l -0.222082,0.157306 h -10e-7 l -10e-7,10e-7 -0.175809,0.07403 -10e-7,1e-6 h -10e-7 -1e-6 v 0 h -10e-7 l -0.342375,-0.02776 v 0 l -0.277603,-0.0093 v 0 0 l -0.148056,0.09253 v 0 1e-6 l -0.12029,0.138798 v 0 l -10e-7,1e-6 h -10e-7 l -10e-7,1e-6 v 0 l -1e-6,1e-6 h -10e-7 -10e-7 -10e-7 -0.370127 -1e-6 -10e-7 l -0.370137,-0.08328 h -10e-7 l -10e-7,-1e-6 v 0 h -10e-7 l -1e-6,-10e-7 -0.212827,-0.166559 -10e-7,-1e-6 -0.175811,-0.175815 -1e-6,-1e-6 -0.175815,-0.203574 v 0 -1e-6 l -0.15731,-0.249841 h -1e-6 l -0.138797,-0.268351 v 0 l -0.09254,-0.166561 v 0 0 l -0.24984,-0.148054 v 0 0 l -0.305365,-0.11104 h -10e-7 l -1e-6,-1e-6 -0.19432,-0.120294 v 0 0 h -0.157307 v 0 0 l -0.203575,0.05552 v 0 0 l -0.231333,0.120294 h -10e-7 l -10e-7,10e-7 h -1e-6 -10e-7 l -0.231332,0.0185 v 0 h -10e-7 l -0.296107,0.166563 h -1e-6 v 0 l -0.185067,0.240583 v 1e-6 l -1e-6,1e-6 -10e-7,10e-7 h -10e-7 -1e-6 l -10e-7,1e-6 h -10e-7 -1e-6 -10e-7 -0.148047 v 0 l -0.259094,0.01851 v 0 0 l -0.342377,0.09253 v 0 1e-6 l -0.203573,0.138799 v 1e-6 h -10e-7 l -1e-6,1e-6 h -10e-7 -10e-7 -1e-6 l -0.240583,0.0093 h -10e-7 -10e-7 -1e-6 -10e-7 -10e-7 l -1e-6,-1e-6 -0.148048,-0.08328 -1e-6,-1e-6 h -10e-7 v -1e-6 l -0.175815,-0.166562 v 0 l -0.259098,-0.212828 v 0 l -0.212829,-0.175815 v 0 h -10e-7 L 58.984524,18.71015 h -10e-7 v 0 l -0.592216,-0.01851 v 0 0 l 0.05552,0.120294 v 10e-7 l 0.09253,0.231334 v 0 1e-6 l 0.04627,0.212828 v 10e-7 l 0.03701,0.314613 v 1e-6 10e-7 1e-6 1e-6 l -1e-6,10e-7 -0.04627,0.120289 -10e-7,10e-7 v 1e-6 l -10e-7,1e-6 v 10e-7 h -1e-6 l -0.222078,0.194321 -1e-6,10e-7 -0.36088,0.268344 -1e-6,10e-7 v 0 l -10e-7,1e-6 h -10e-7 -1e-6 -10e-7 -1e-6 -10e-7 -10e-7 -1e-6 l -10e-7,-1e-6 h -10e-7 l -0.101776,-0.05552 h -1e-6 l -10e-7,-1e-6 v -1e-6 l -10e-7,-10e-7 -0.08328,-0.111038 v 0 0 l -0.518188,0.194321 h -10e-7 l -0.249843,0.129549 v 0 0 l -0.268349,0.30536 v 1e-6 l -0.259094,0.323869 v 0 l -0.286858,0.425657 v 0 1e-6 l -0.0185,0.351629 v 2e-6 1e-6 l -0.05552,0.185067 v 0 0 l -0.0185,0.138801 v 10e-7 l -0.03701,0.138799 h -10e-7 v 10e-7 1e-6 l -1e-6,1e-6 v 1e-6 l -0.07403,0.08328 v 0 1e-6 l -0.0093,0.194318 -10e-7,1e-6 v 10e-7 1e-6 l -1e-6,1e-6 -0.30536,0.592217 h -10e-7 v 1e-6 l -10e-7,1e-6 -1e-6,1e-6 -0.231333,0.203573 v 0 1e-6 l 0.0185,0.120292 v 0 0 l 0.09253,0.17581 1e-6,1e-6 v 1e-6 10e-7 1e-6 1e-6 1e-6 0 10e-7 1e-6 l -1e-6,1e-6 v 10e-7 l -10e-7,1e-6 -0.138796,0.175808 v 1e-6 h -1e-6 l -10e-7,1e-6 v 0 l -10e-7,10e-7 h -1e-6 l -0.157304,0.05552 v 0 1e-6 l -0.129547,0.09253 v 0 10e-7 l 0.03701,0.296105 v 1e-6 10e-7 1e-6 1e-6 1e-6 l -1e-6,10e-7 v 0 l -10e-7,1e-6 v 1e-6 l -0.675495,0.712508 v 1e-6 h -1e-6 l -10e-7,10e-7 h -10e-7 l -0.12029,0.05552 -10e-7,1e-6 h -10e-7 l -0.323866,0.07403 h -10e-7 l -0.342376,0.11104 v 0 l -0.138802,0.06478 v 0 0 l -0.286856,0.212825 h -1e-6 v 1e-6 h -10e-7 -10e-7 l -0.222082,0.05552 v 0 h -1e-6 l -0.342369,0.277599 h -10e-7 l -1e-6,1e-6 h -10e-7 -10e-7 v 10e-7 h -1e-6 -10e-7 -10e-7 l -0.453415,-0.02776 v 0 0 l 0.169646,0.138801 h 1e-6 l 10e-7,1e-6 0.161933,0.200488 v 0 l 0.2776,0.370133 h 10e-7 v 1e-6 l 10e-7,1e-6 v 1e-6 10e-7 1e-6 1e-6 10e-7 1e-6 0 l -0.05398,0.177351 h -1e-6 v 10e-7 1e-6 l -10e-7,1e-6 -0.1388,0.185068 v 0 l -0.115669,0.161934 h -10e-7 v 0 l -0.07711,0.161934 v 0 0 0.439536 1e-6 1e-6 l -0.03084,0.177354 v 1e-6 l -10e-7,1e-6 v 10e-7 l -1e-6,1e-6 -0.115667,0.177354 -1e-6,10e-7 h -10e-7 l -0.06169,0.06169 v 0 0 l -0.06169,0.161932 v 10e-7 l -10e-7,1e-6 v 1e-6 h -10e-7 l -0.131089,0.146508 -10e-7,10e-7 v 0 l -1e-6,1e-6 h -10e-7 l -10e-7,1e-6 h -1e-6 l -0.107952,0.03084 h -10e-7 v 0 l 0.03855,0.161929 v 1e-6 l 10e-7,1e-6 v 10e-7 l -10e-7,1e-6 v 1e-6 1e-6 10e-7 l -1e-6,1e-6 h -10e-7 l -0.08482,0.107952 h -10e-7 l -1e-6,10e-7 v 0 l -0.331576,0.25447 h -10e-7 v 1e-6 l -0.354713,0.169643 z"
       id="path2" />
  </g>
  <g
     id="g3">
    <path
       fill-rule="evenodd"
       fill="#585255"
       stroke="#555555"
       stroke-width="0"
       opacity="1"
       d="m 53.011505,31.412006 v 10e-7 l 0.208202,0.370135 10e-7,1e-6 0.169647,0.431827 v 0 0 l 0.208202,0.354713 v 10e-7 -10e-7 l 0.188766,-0.16656 10e-7,-1e-6 0.18877,-0.133251 v 0 l 0.122146,-0.07773 h 10e-7 l 0.14435,-0.111041 h 10e-7 v -1e-6 h 1e-6 l 10e-7,-10e-7 0.366433,-0.09993 h 10e-7 l 1e-6,-10e-7 0.499683,-0.03331 v 0 l 0.41085,-0.03331 h 10e-7 l 0.344226,0.02221 v 0 l 0.532995,0.0111 h 10e-7 1e-6 10e-7 1e-6 v 10e-7 l 0.322015,0.166559 2e-6,1e-6 0.266496,0.188769 10e-7,10e-7 h 10e-7 v 10e-7 l 0.16656,0.199873 10e-7,10e-7 v 10e-7 l 0.155456,0.277598 v 0 0 l 0.322022,0.333122 v 1e-6 l 0.37754,0.344226 v 0 0 l 0.288704,-0.266494 v 0 -10e-7 l 0.177666,-0.277602 v -10e-7 l 0.244289,-0.355331 v 0 l 0.255398,-0.333122 v 0 l 0.166557,-0.222084 v 0 0 l -0.532997,-0.144352 v 0 l -0.499679,-0.11104 -1e-6,-1e-6 -0.477476,-0.16656 h -10e-7 l -1e-6,-1e-6 v 0 l -0.233182,-0.155456 v -1e-6 h -10e-7 l -1e-6,-1e-6 v -10e-7 l -10e-7,-1e-6 v -1e-6 l -0.07773,-0.19987 v 0 h -10e-7 l -0.288702,0.144353 -10e-7,10e-7 h -1e-6 l -0.233186,0.05552 h -10e-7 -1e-6 -10e-7 -1e-6 l -0.310906,-0.05552 h -1e-6 v -10e-7 h -10e-7 l -10e-7,-1e-6 h -1e-6 l -10e-7,-1e-6 -10e-7,-1e-6 v 0 l -1e-6,-10e-7 v -1e-6 l -0.09993,-0.255387 v -1e-6 -1e-6 -10e-7 -1e-6 -0.09993 0 h -10e-7 l -0.196172,0.05182 h -1e-6 -10e-7 -10e-7 -1e-6 -10e-7 -10e-7 l -1e-6,-10e-7 h -10e-7 l -1e-6,-1e-6 v -1e-6 h -10e-7 l -0.222076,-0.255389 v -10e-7 0 L 55.72214,30.63288 h -1e-6 v 0 l -0.355331,-0.144352 v 0 0 l -0.348686,-0.04898 h -10e-7 l -0.328658,-1.03e-4 h -1e-6 l -0.337584,0.03777 h -10e-7 v 0 l -0.355331,0.102013 v 0 0 l -0.178497,0.12495 -1e-6,1e-6 -0.276675,0.21866 h -10e-7 l -0.232051,0.205274 -10e-7,1e-6 -0.102634,0.111562 v 0 l -0.195179,0.172342 z"
       id="path3" />
  </g>
  <g
     id="g4">
    <path
       fill-rule="evenodd"
       fill="#4d6508"
       stroke="#555555"
       stroke-width="0"
       opacity="1"
       d="m 53.597557,32.568684 v 0 l 0.203574,0.407148 1e-6,1e-6 v 10e-7 10e-7 1e-6 l 0.0093,0.277597 v 10e-7 l -0.01851,0.240588 v 0 0 l 0.203572,0.111041 h 10e-7 l 1e-6,10e-7 10e-7,1e-6 v 0 l 10e-7,10e-7 v 10e-7 l 0.122817,0.222497 v 0 l 0.120293,0.24984 v 0 l 0.18507,0.3979 v 0 l 0.138801,0.323867 v 0 l 0.158848,0.3578 v 0 0 l 0.386429,-0.12318 v 0 l 0.333122,-0.09994 v 0 0 l 0.344231,-0.166561 v 0 l 0.288703,-0.144352 h 1e-6 l 0.222083,-0.155456 h 10e-7 v -10e-7 l 0.144351,-0.188769 1e-6,-10e-7 0.210975,-0.233188 v 0 -1e-6 l 0.08883,-0.188761 v -10e-7 l 10e-7,-1e-6 v 0 l 1e-6,-10e-7 10e-7,-10e-7 h 10e-7 l 1e-6,-1e-6 h 10e-7 10e-7 l 1e-6,-10e-7 0.266493,-0.03331 v 0 l 0.299808,-0.05552 v 0 0 l 0.344231,-0.133251 v 0 l 0.355331,-0.177666 v 0 0 l -0.133251,-0.133247 v 0 l -0.244289,-0.210979 -1e-6,-1e-6 -0.32202,-0.333121 v 0 l -1e-6,-10e-7 v -1e-6 L 57.150907,32.50206 v 0 h -10e-7 l -0.16656,-0.199875 v 0 h -1e-6 l -0.266498,-0.18877 v 0 l -0.322018,-0.166561 v 0 0 l -0.532997,-0.0111 v 0 l -0.344226,-0.02221 h -10e-7 l -0.41085,0.03331 v 0 l -0.499683,0.03331 h -10e-7 v 1e-6 l -0.366435,0.09993 h -10e-7 v 0 l -0.144351,0.111042 h -1e-6 l -0.122146,0.07773 v 0 l -0.18877,0.133251 -10e-7,10e-7 -0.188766,0.16656 z"
       id="path4" />
  </g>
  <g
     id="g5">
    <path
       fill-rule="evenodd"
       fill="#13122f"
       stroke="#555555"
       stroke-width="0"
       opacity="1"
       d="m 48.922318,34.779587 v 0 l 0.06486,0.0521 10e-7,10e-7 v 0 l 1e-6,10e-7 v 1e-6 l 10e-7,10e-7 v 10e-7 1e-6 l 10e-7,10e-7 v 1e-6 10e-7 l -10e-7,10e-7 -0.03945,0.233812 v 0 0 l 0.06466,0.156059 v 0 0 l 0.207984,-0.03857 h 1e-6 l 10e-7,-10e-7 0.376826,7.6e-4 v 0 l 0.350818,0.0137 h 2e-6 l 0.545565,0.09205 v 10e-7 h 10e-7 l 0.272665,0.104503 h 10e-7 l 10e-7,10e-7 0.19465,0.130331 h 10e-7 v 10e-7 l 1e-6,10e-7 10e-7,1e-6 v 0 l 0.220088,0.403257 v 0 1e-6 l 0.103874,0.03919 v 0 0 l 0.259936,-0.02547 h 1e-6 10e-7 10e-7 l 0.33768,0.07864 h 1e-6 l 10e-7,10e-7 h 10e-7 1e-6 v 10e-7 l 10e-7,1e-6 0.181554,0.182278 v 1e-6 h 1e-6 v 10e-7 l 0.116526,0.208138 v 1e-6 l 10e-7,10e-7 v 10e-7 1e-6 10e-7 l -3.39e-4,0.168919 v 10e-7 l -0.02677,0.38977 v 0 0 l 0.385559,-0.408691 h 1e-6 l 0.161932,-0.154224 h 10e-7 l 10e-7,-1e-6 0.177354,-0.107954 1e-6,-10e-7 h 10e-7 10e-7 1e-6 10e-7 l 0.246751,-0.0077 v 0 h 0.192779 v 0 0 l 0.100246,-0.161932 v -10e-7 l 10e-7,-1e-6 v 0 l 10e-7,-10e-7 0.262179,-0.208201 v 0 l 0.316157,-0.223624 v -10e-7 h 1e-6 l 10e-7,-10e-7 h 10e-7 l 0.1388,-0.03084 v 0 0 l 0.192779,-0.208198 10e-7,-1e-6 0.215911,-0.177356 h 1e-6 l 0.177356,-0.123379 v 0 0 l -0.158848,-0.357799 v -10e-7 l -0.138801,-0.323867 v 0 l -0.18507,-0.3979 v 0 l -0.120293,-0.24984 v 0 l -0.122818,-0.222499 v -10e-7 0 l -0.20357,-0.111039 v 0 l -10e-7,-1e-6 h -10e-7 l -1e-6,-10e-7 v -10e-7 l -10e-7,-1e-6 v 0 -10e-7 l -1e-6,-1e-6 v -10e-7 -10e-7 -1e-6 l 0.01851,-0.240582 v -10e-7 l -0.0093,-0.277599 v 0 0 l -0.203575,-0.40715 v -10e-7 l -0.208202,-0.354712 v -1e-6 l -10e-7,-10e-7 -0.169646,-0.431826 -1e-6,-1e-6 -0.208202,-0.370135 v -1e-6 1e-6 l -0.192779,0.115669 v 0 h -1e-6 l -0.177355,0.154221 v 0 l -10e-7,10e-7 h -1e-6 l -10e-7,1e-6 -0.254465,0.09253 v 0 l -0.354713,0.146511 h -10e-7 v 0 l -0.208202,0.200493 v 0 0 l -0.09253,0.169643 v 1e-6 l -0.05398,0.107952 -1e-6,10e-7 v 1e-6 h -10e-7 l -10e-7,10e-7 v 0 l -1e-6,10e-7 h -10e-7 l -1e-6,1e-6 -0.400977,0.154223 h -10e-7 l -0.223621,0.06169 v 0 l -0.231339,0.05398 v 0 0 l -0.269889,0.293022 h -1e-6 v 0 l -0.107955,0.239046 v 10e-7 l -1e-6,1e-6 v 0 l -10e-7,10e-7 v 10e-7 l -0.208201,0.169641 v 1e-6 l -0.33929,0.339294 h -10e-7 l -0.209846,0.174183 v 0 l -0.286384,0.289356 h -10e-7 l -0.204528,0.260311 v 0 l -0.273117,0.345799 z"
       id="path5" />
  </g>
  <g
     id="g6">
    <path
       fill-rule="evenodd"
       fill="#155a4a"
       stroke="#555555"
       stroke-width="0"
       opacity="1"
       d="m 46.258682,32.876835 v 0 l 0.0942,0.208346 v 1e-6 l 10e-7,10e-7 0.116058,0.442035 v 0 0 l 0.181915,3.66e-4 v 0 l 0.54578,-0.0119 h 1e-6 l 0.35076,0.03969 h 1e-6 v 0 l 0.324671,0.09161 v 0 h 10e-7 l 10e-7,10e-7 h 1e-6 l 0.246517,0.182412 v 10e-7 h 10e-7 l 1e-6,1e-6 v 10e-7 l 10e-7,10e-7 v 1e-6 0 l 0.0645,0.23402 v 10e-7 10e-7 1e-6 l -0.01364,0.324823 v 0 1e-6 l -0.05245,0.233791 v 0 l -0.0395,0.259803 v 10e-7 0 l 0.06463,0.169051 v 1e-6 0 l 0.181656,0.130306 v 0 0 l 0.169002,-0.03864 h 10e-7 v 0 l 0.104133,-0.09075 v 0 l 0.325401,-0.27222 v 0 h 10e-7 l 0.273117,-0.345799 0.204528,-0.26031 10e-7,-10e-7 0.286384,-0.289356 v 0 l 0.209846,-0.174183 h 10e-7 l 0.33929,-0.339294 v -10e-7 l 0.208202,-0.169643 v 0 h 1e-6 l 0.107955,-0.239046 v -10e-7 l 10e-7,-1e-6 v -10e-7 l 0.269887,-0.293019 h 10e-7 l 1e-6,-10e-7 v -1e-6 h 10e-7 10e-7 l 1e-6,-10e-7 0.231336,-0.05398 v 0 l 0.223621,-0.06169 v 0 l 0.400982,-0.154225 v 0 0 l 0.05398,-0.107955 v -10e-7 l 0.09253,-0.169642 h 10e-7 v -10e-7 l 10e-7,-10e-7 0.2082,-0.20049 10e-7,-1e-6 10e-7,-10e-7 v 0 l 1e-6,-1e-6 0.354712,-0.14651 v 0 l 0.254467,-0.09253 v 0 0 l 0.177356,-0.154222 h 10e-7 v -1e-6 l 0.192779,-0.115668 v -1e-6 0 l -0.424114,-0.431823 v 0 l -10e-7,-1e-6 -0.308444,-0.439536 v 0 l -0.385559,-0.508938 v -1e-6 l -0.616894,-1.041007 v 0 0 l -0.33929,0.246757 h -10e-7 l -0.26218,0.177357 v 0 l -0.331576,0.246756 v 1e-6 h -1e-6 l -10e-7,1e-6 h -10e-7 l -0.408689,0.115665 h -10e-7 v 0 l -0.09254,0.192779 v 0 1e-6 l 0.09254,0.331579 v 10e-7 1e-6 1e-6 1e-6 l -0.06169,0.431817 v 1e-6 l -1e-6,10e-7 v 1e-6 l -10e-7,1e-6 v 10e-7 h -10e-7 v 1e-6 l -1e-6,1e-6 -0.200483,0.15422 h -10e-7 l -1e-6,1e-6 h -10e-7 -10e-7 -1e-6 v 1e-6 h -10e-7 l -0.316155,-0.0077 v 0 l -0.26218,0.0077 h -10e-7 v 0 l -0.123377,0.2776 v 10e-7 h -1e-6 v 1e-6 l -10e-7,1e-6 h -1e-6 l -10e-7,1e-6 v 0 l -0.262173,0.138798 h -1e-6 l -10e-7,1e-6 -0.408694,0.123378 v 0 1e-6 l 0.05398,0.146509 v 1e-6 1e-6 1e-6 10e-7 1e-6 1e-6 10e-7 l -0.03855,0.107949 v 1e-6 l -10e-7,10e-7 v 0 l -10e-7,1e-6 -1e-6,1e-6 v 1e-6 h -10e-7 l -0.200485,0.131087 -10e-7,1e-6 v 0 l -1e-6,1e-6 h -10e-7 l -0.269888,0.06169 v 0 l -0.293026,0.04627 v 0 1e-6 l 0.0077,0.215908 v 10e-7 10e-7 1e-6 l -1e-6,10e-7 v 10e-7 l -10e-7,1e-6 v 10e-7 l -10e-7,10e-7 h -1e-6 l -0.131087,0.107952 v 10e-7 h -10e-7 l -10e-7,1e-6 -0.424113,0.169642 v 0 10e-7 l -0.131088,0.08482 v 0 0 l -0.09253,0.09253 v 0 0 l 0.0694,0.293014 10e-7,10e-7 v 1e-6 0 10e-7 l -10e-7,10e-7 v 1e-6 10e-7 l -1e-6,10e-7 v 1e-6 l -10e-7,10e-7 v 0 l -1e-6,10e-7 h -10e-7 l -10e-7,1e-6 h -1e-6 l -10e-7,10e-7 h -10e-7 v 0 h -1e-6 l -0.591593,-0.008 z"
       id="path6" />
  </g>
  <g
     id="g7">
    <path
       fill-rule="evenodd"
       fill="#801b06"
       stroke="#555555"
       stroke-width="0"
       opacity="1"
       d="m 42.257557,31.1982 v 0 l 0.161894,-0.0051 h 10e-7 10e-7 1e-6 10e-7 l 0.129835,0.05224 v 0 l 0.766182,0.235434 v 0 l 1.207744,0.353267 v 0 l 0.844043,0.287567 2e-6,10e-7 0.324537,0.156581 h 1e-6 l 10e-7,10e-7 0.272455,0.208453 h 10e-7 l 1e-6,1e-6 0.259257,0.31238 v 10e-7 l 10e-7,1e-6 v 0 l 0.03517,0.07778 v 0 0 l 0.591606,0.008 v 0 0 l -0.0694,-0.29302 v -10e-7 -10e-7 -1e-6 -10e-7 -10e-7 -1e-6 l 1e-6,-10e-7 v -10e-7 l 10e-7,-1e-6 1e-6,-10e-7 0.09253,-0.09253 10e-7,-10e-7 1e-6,-10e-7 0.131086,-0.08482 1e-6,-1e-6 h 10e-7 l 0.424113,-0.169643 v 0 0 l 0.131092,-0.107956 v 0 0 l -0.0077,-0.215905 v -10e-7 -1e-6 l 10e-7,-1e-6 v -1e-6 -10e-7 h 1e-6 v -1e-6 l 10e-7,-1e-6 10e-7,-10e-7 v 0 l 1e-6,-1e-6 h 10e-7 l 10e-7,-1e-6 h 1e-6 10e-7 l 0.293017,-0.04626 v 0 l 0.26989,-0.06169 v 0 0 l 0.200489,-0.13109 v 0 0 l 0.03856,-0.107955 v -1e-6 0 l -0.05397,-0.146503 -10e-7,-1e-6 v -10e-7 -1e-6 -1e-6 0 -10e-7 l 10e-7,-1e-6 v -1e-6 -10e-7 l 1e-6,-1e-6 v -1e-6 h 10e-7 l 10e-7,-1e-6 1e-6,-10e-7 v 0 h 10e-7 l 1e-6,-1e-6 0.408685,-0.123375 v 0 -1e-6 l 0.262177,-0.138799 v 0 0 l 0.123376,-0.277598 v 0 l 10e-7,-1e-6 10e-7,-10e-7 v -1e-6 h 1e-6 l 10e-7,-1e-6 10e-7,-1e-6 h 1e-6 10e-7 10e-7 1e-6 l 0.262174,-0.0077 v 0 l 0.316158,0.0077 v 0 0 l 0.200489,-0.154225 v 0 0 l 0.06169,-0.431823 v 0 -1e-6 l -0.09253,-0.331577 -10e-7,-1e-6 v -10e-7 -1e-6 -1e-6 -10e-7 l 10e-7,-1e-6 v -1e-6 l 0.09253,-0.192772 10e-7,-1e-6 v -1e-6 h 1e-6 l 10e-7,-1e-6 v -10e-7 h 10e-7 l 1e-6,-1e-6 h 10e-7 10e-7 l 0.408687,-0.115664 v -1e-6 0 l 0.331577,-0.246757 v 0 l 0.26218,-0.177357 h 10e-7 l 0.339289,-0.246757 h 10e-7 l 1e-6,-10e-7 0.354712,-0.169643 h 10e-7 v 0 l 0.177356,-0.131092 v 0 l 0.154221,-0.123378 v 0 -10e-7 l 0.08482,-0.107955 v 0 -1e-6 l -0.03855,-0.161924 v -1e-6 -1e-6 -10e-7 -1e-6 l 10e-7,-1e-6 v -1e-6 -10e-7 h 10e-7 v -1e-6 l 1e-6,-1e-6 v -10e-7 h 10e-7 l 1e-6,-1e-6 h 10e-7 l 10e-7,-1e-6 v 0 l 0.107947,-0.03084 v 0 0 l 0.131092,-0.146511 v 0 0 l 0.06169,-0.161932 v -1e-6 l 10e-7,-1e-6 10e-7,-10e-7 v 0 l 0.06169,-0.06169 v 0 -1e-6 l 0.115669,-0.177356 v 0 h 10e-7 l 0.03084,-0.177357 v 0 0 -0.439535 0 -10e-7 -1e-6 l 10e-7,-1e-6 v -10e-7 l 0.07711,-0.161931 v -10e-7 h 1e-6 L 52.7108,26.777572 v 0 l 0.138801,-0.18507 v 0 0 l 0.05398,-0.177356 v 0 -1e-6 l -0.131092,-0.185066 v 0 l -0.146511,-0.18507 -0.161934,-0.200489 v 0 0 l -0.169647,-0.138801 v 0 0 l -0.123379,0.09253 v 0 l -0.185066,0.154222 v 0 l -0.192778,0.169644 -10e-7,10e-7 h -1e-6 v 1e-6 h -10e-7 l -0.200487,0.07711 -10e-7,1e-6 -0.123382,0.03084 h -1e-6 l -0.208198,0.08482 v 0 0 l -0.185068,0.185067 h -10e-7 l -1e-6,1e-6 v 0 l -10e-7,10e-7 h -10e-7 l -0.185063,0.06169 -1e-6,1e-6 h -10e-7 l -0.208201,0.03084 v 0 h -10e-7 l -0.316157,0.123379 h -10e-7 v 0 l -0.26218,0.161936 v 0 l -0.262176,0.13109 v 0 h -1e-6 l -0.26218,0.215912 v 0 l -0.316156,0.246755 v 1e-6 h -10e-7 l -10e-7,10e-7 h -1e-6 -10e-7 -10e-7 l -0.269887,0.0077 v 0 0 l -0.26989,0.09253 v 0 l -0.208847,0.101744 v 0 0 l -0.283813,0.203489 v 0 0 l -0.133871,0.198131 -1e-6,1e-6 h -10e-7 l -10e-7,10e-7 v 1e-6 h -1e-6 l -10e-7,1e-6 -0.101742,0.03748 h -10e-7 l -1e-6,1e-6 -0.176711,0.02142 v 0 0 l -0.133876,0.06961 h -10e-7 v 1e-6 l -0.176874,0.155849 -10e-7,10e-7 -10e-7,1e-6 h -1e-6 -10e-7 l -0.255391,0.07773 h -10e-7 -10e-7 l -0.399745,0.05552 v 0 0 l -0.41085,0.222082 v 0 l -0.377541,0.210976 v 0 0 l -0.122142,0.255392 v 1e-6 l -10e-7,1e-6 v 10e-7 h -10e-7 l -0.188768,0.166559 v 0 l -10e-7,1e-6 h -1e-6 l -10e-7,1e-6 -0.233179,0.08883 -10e-7,1e-6 h -1e-6 -10e-7 -10e-7 -1e-6 -10e-7 -1e-6 v -1e-6 l -0.188767,-0.07773 v 0 0 l -0.210975,0.02221 h -10e-7 v 0 l -0.199874,0.07773 h -1e-6 v 0 l -0.244289,0.144354 v 0 l -0.222079,0.11104 h -1e-6 -10e-7 l -0.266497,0.07773 h -10e-7 l -0.266498,0.11104 v 1e-6 l -0.477474,0.222082 h -1e-6 l -0.231735,0.12256 v 0 0 l -0.04462,0.156184 v 10e-7 l -1e-6,1e-6 v 0 l -10e-7,1e-6 v 1e-6 l -10e-7,10e-7 h -1e-6 l -0.20081,0.147261 h -10e-7 l -0.392696,0.34361 v 10e-7 l -0.316837,0.303447 z"
       id="path7" />
  </g>
  <g
     id="g8">
    <path
       fill-rule="evenodd"
       fill="#1e130a"
       stroke="#555555"
       stroke-width="0"
       opacity="1"
       d="m 0.92541886,44.460991 h 8e-8 l 0.10281356,0.25061 h 10e-8 2e-7 l 0.1028151,0.115667 7e-7,1e-6 6e-7,10e-7 4e-7,1e-6 4e-7,10e-7 3e-7,10e-7 10e-8,1e-6 0.032127,0.327721 v 0 h 1e-7 l 0.1349444,0.276317 4e-7,1e-6 h 2e-7 l 0.077114,0.263461 1e-7,10e-7 h 1e-7 l 0.1542242,0.237762 h 1e-7 3e-7 l 0.1542225,0.05783 10e-7,10e-7 h 10e-7 l 9e-7,1e-6 0.1542249,0.128514 7e-7,1e-6 7e-7,10e-7 h 6e-7 l 5e-7,1e-6 4e-7,10e-7 0.028403,0.07747 h 10e-8 2e-7 l 0.056812,0.02582 h 2e-7 3e-7 l 0.046485,0.0026 h 2e-7 l 2e-7,-1e-6 0.037077,-0.03331 h 8e-7 l 8e-7,-10e-7 h 9e-7 l 9e-7,-10e-7 h 9e-7 l 0.1932118,-0.047 h 2e-7 l 2e-7,-10e-7 0.1879955,-0.109664 h 2e-7 l 10e-8,-10e-7 0.09922,-0.156661 h 1e-7 l 10e-8,-1e-6 0.073108,-0.255881 3e-7,-1e-6 h 4e-7 l 0.1409942,-0.27677 4e-7,-10e-7 6e-7,-1e-6 0.1827726,-0.234992 8e-7,-10e-7 0.2297658,-0.234991 7e-7,-10e-7 7e-7,-1e-6 0.3237669,-0.229769 1e-6,-10e-7 h 10e-7 l 0.2454362,-0.09922 h 8e-7 l 0.083553,-0.02611 h 2e-7 v 0 -0.501314 -10e-7 l 2e-7,-10e-7 2e-7,-1e-6 3e-7,-10e-7 4e-7,-10e-7 h 5e-7 l 5e-7,-1e-6 6e-7,-10e-7 h 7e-7 l 7e-7,-10e-7 8e-7,-1e-6 0.428206,-0.250656 6e-7,-10e-7 0.2976563,-0.146217 h 8e-7 l 0.2297738,-0.08878 h 3e-7 2e-7 l 0.1514393,-0.09922 h 10e-8 2e-7 l 0.4576185,-0.499012 h 1e-7 l 0.5434416,-0.651748 2e-7,-1e-6 0.2443922,-0.33839 h 3e-7 l 0.2168195,-0.371605 h 2e-7 l 0.1065328,-0.206794 1e-7,-1e-6 v 0 -0.106529 0 0 l -0.087734,-0.256925 -2e-7,-10e-7 -2e-7,-1e-6 -10e-8,-10e-7 v -1e-6 l 0.012535,-0.256922 1e-7,-10e-7 2e-7,-1e-6 4e-7,-10e-7 4e-7,-1e-6 5e-7,-10e-7 6e-7,-10e-7 h 6e-7 l 0.1879895,-0.194257 v 0 l 0.1754644,-0.187996 4e-7,-1e-6 0.1127965,-0.156661 h 1e-7 v -10e-7 l 0.012531,-0.256927 v 0 l 0.012531,-0.181728 v 0 l 0.00719,-0.148071 v 0 l -10e-8,-1e-6 -0.019279,-0.08996 v -10e-7 L 6.8243169,39.37001 h -1e-7 -1e-7 l -0.064258,-0.141372 -1e-7,-10e-7 -0.064262,-0.134944 -1e-7,-1e-6 -0.07711,-0.179922 -3e-7,-10e-7 -3e-7,-1e-6 -1e-7,-10e-7 -0.025703,-0.167071 h -10e-8 v -10e-7 l 10e-8,-1e-6 2e-7,-10e-7 3e-7,-10e-7 3e-7,-1e-6 5e-7,-10e-7 5e-7,-10e-7 0.09639,-0.134939 6e-7,-10e-7 7e-7,-1e-6 7e-7,-10e-7 h 8e-7 l 8e-7,-1e-6 0.086765,-0.04338 h 9e-7 l 1e-6,-10e-7 h 1e-6 1e-6 1e-6 l 0.1549425,0.0062 h 3e-7 2e-7 l 0.1146617,-0.03099 h 3e-7 1e-7 l 0.043384,-0.06818 h 1e-7 -1e-7 l -0.034086,-0.05268 -5e-7,-10e-7 -4e-7,-10e-7 -3e-7,-1e-6 -2e-7,-10e-7 -2e-7,-10e-7 v -1e-6 -10e-7 l 2e-7,-10e-7 0.018595,-0.09296 2e-7,-10e-7 4e-7,-10e-7 h 4e-7 l 5e-7,-1e-6 5e-7,-10e-7 6e-7,-10e-7 h 7e-7 l 8e-7,-1e-6 h 8e-7 l 8e-7,-10e-7 0.070451,-0.03144 h 1e-6 1e-6 1.1e-6 L 7.266196,38.28545 h 2e-7 2e-7 l 0.2763171,-0.08354 h 3e-7 2e-7 l 0.2313303,-0.128517 h 7e-7 l 0.2120576,-0.09639 h 1.1e-6 1.1e-6 l 0.1927764,-0.03855 h 1e-6 10e-7 10e-7 1e-6 l 0.1220887,0.0257 h 1e-6 9e-7 l 9e-7,10e-7 h 9e-7 l 8e-7,10e-7 0.1028116,0.08996 h 1e-7 3e-7 l 0.2698893,0.0064 h 3e-7 2e-7 l 0.1992049,-0.03213 h 3e-7 2e-7 l 0.1285187,-0.06426 h 3e-7 l 0.1542242,-0.08997 h 1e-7 l 0.1670717,-0.102812 h 8e-7 l 9e-7,-1e-6 h 8e-7 9e-7 9e-7 10e-7 0.051395 10e-7 9e-7 9e-7 9e-7 l 9e-7,1e-6 h 8e-7 l 8e-7,10e-7 7e-7,10e-7 h 7e-7 l 6e-7,1e-6 5e-7,10e-7 4e-7,1e-6 h 4e-7 l 2e-7,10e-7 2e-7,10e-7 0.00642,0.04497 1e-7,1e-6 h 10e-8 l 0.059395,-0.04132 h 8e-7 l 9e-7,-1e-6 h 9e-7 9e-7 9e-7 l 0.082633,-0.01033 h 9e-7 1e-6 10e-7 1e-6 l 9e-7,10e-7 0.059391,0.02324 9e-7,10e-7 h 9e-7 l 8e-7,1e-6 h 8e-7 l 6e-7,10e-7 6e-7,10e-7 6e-7,1e-6 0.038734,0.0723 h 3e-7 l 0.028406,0.06198 h 1e-7 l 2e-7,10e-7 0.069726,0.04906 h 3e-7 2e-7 l 0.2052723,-0.01785 h 2e-7 l 0.321299,-0.04016 0.240972,-0.03124 h 1e-6 l 0.223123,-0.0357 v 0 0 l 0.23205,-0.08925 v 0 0 l 0.196348,-0.191887 v 0 l 0.178499,-0.223121 v -1e-6 l 0.156185,-0.23651 v 0 l 10e-7,-1e-6 v -10e-7 l 0.142801,-0.129412 v -10e-7 l 0.09371,-0.11156 h 1e-6 v 0 l 0.0714,-0.245438 v 0 0 l -0.0089,-0.495334 v -10e-7 l -0.01785,-0.334682 v 0 l -0.04016,-0.339149 v -10e-7 l -0.05355,-0.272212 v 0 -10e-7 l -0.11156,-0.214194 -10e-7,-1e-6 v 0 l -0.07586,-0.23205 v -10e-7 l -10e-7,-10e-7 v 0 -1e-6 l 0.01339,-0.218656 v -1e-6 -10e-7 l 0.04462,-0.196349 v 0 0 l -0.01785,-0.12495 v 0 -1e-6 L 11.3787,33.999653 h -1e-6 v 0 l -0.209737,-0.147259 h -1e-6 L 10.96815,33.682819 v 0 l -0.178496,-0.156184 -1e-6,-10e-7 -10e-7,-1e-6 -0.08032,-0.102635 -10e-7,-10e-7 v 0 l -1e-6,-10e-7 v -1e-6 -10e-7 -2e-6 l -0.01339,-0.392696 v 0 l -0.01339,-0.419472 v 0 h -1e-6 l -0.08925,-0.200809 v -10e-7 0 l -0.276674,-0.290061 v -10e-7 0 l -0.272209,-0.200811 h -10e-7 L 9.7766675,31.768417 h -2e-7 -3e-7 l -0.1517146,-0.0045 h -10e-7 -9e-7 -1e-6 l -9e-7,-1e-6 h -9e-7 l -8e-7,-10e-7 h -8e-7 l -7e-7,-1e-6 -6e-7,-1e-6 h -6e-7 l -4e-7,-10e-7 -4e-7,-1e-6 -3e-7,-1e-6 -3e-7,-10e-7 -10e-8,-1e-6 -0.022311,-0.294514 h -10e-8 l -1e-7,-1e-6 -0.1249501,-0.182961 -2e-7,-1e-6 h -2e-7 L 9.2813332,31.107934 h -2e-7 -10e-8 l -0.2989861,-0.19635 h -2e-7 -2e-7 L 8.7190602,30.808948 h -2e-7 -2e-7 l -0.3346839,0.01339 h -3e-7 -2e-7 l -0.2320476,0.09817 h -2e-7 l -10e-8,10e-7 -0.1204908,0.232049 h -2e-7 l -0.1070973,0.187423 -6e-7,10e-7 -0.07586,0.102633 -7e-7,1e-6 -7e-7,10e-7 -8e-7,1e-6 h -8e-7 l -9e-7,1e-6 h -10e-7 -9e-7 l -0.1740302,0.04016 h -7e-7 l -0.263286,0.09817 -2e-7,1e-6 h -2e-7 l -0.1472622,0.156186 -2e-7,1e-6 h -10e-8 l -0.102638,0.165111 h -10e-8 -2e-7 l -0.066936,0.200813 h -10e-8 l -0.044624,0.151721 h -4e-7 l -3e-7,1e-6 -5e-7,10e-7 -6e-7,10e-7 -0.049084,0.06247 -7e-7,10e-7 -7e-7,10e-7 h -9e-7 l -9e-7,1e-6 h -1e-6 l -1e-6,10e-7 -0.3257566,0.08925 h -2e-7 l -0.2409741,0.08032 h -5e-7 l -0.2900575,0.08033 -7e-7,1e-6 -0.3302225,0.142799 h -2e-7 -2e-7 l -0.2766758,0.214199 h -2e-7 -2e-7 L 5.416828,33.089269 h -10e-8 l -1e-7,10e-7 -0.0714,0.205272 v 0 l -0.080322,0.227585 h -10e-8 l -0.058014,0.200813 v 0 l -0.066936,0.227585 h -2e-7 l -0.031237,0.08479 -3e-7,1e-6 h -5e-7 l -5e-7,10e-7 -6e-7,10e-7 -7e-7,1e-6 h -7e-7 l -8e-7,10e-7 h -8e-7 l -0.2250824,0.111914 h -5e-7 l -0.3020169,0.128521 h -1e-7 l -0.2506141,0.102814 h -10e-8 L 4.016327,34.513517 h -2e-7 l -1e-7,10e-7 -0.1477925,0.141368 h -2e-7 v 1e-6 L 3.823551,34.9055 v 0 10e-7 l 0.012852,0.199203 v 0 l 0.038555,0.250614 h 1e-7 v 0 l 0.064258,0.192777 2e-7,10e-7 2e-7,10e-7 10e-8,1e-6 -10e-8,10e-7 -1e-7,10e-7 -0.044982,0.282738 -3e-7,10e-7 -3e-7,1e-6 -0.096389,0.231334 v 0 h -10e-8 l -0.057831,0.237758 -10e-8,1e-6 -0.051407,0.347003 v 1e-6 l -0.019276,0.327722 -10e-8,10e-7 -2e-7,10e-7 -3e-7,1e-6 -3e-7,10e-7 -0.1092444,0.231332 -2e-7,10e-7 -0.1734999,0.327724 h -10e-8 l -0.1863516,0.398407 h -3e-7 l -0.2184825,0.39841 -7e-7,10e-7 -0.1927753,0.263466 h -10e-8 l -0.2249067,0.295593 h -10e-8 -2e-7 l -0.1349447,0.26989 h -10e-8 v 0 l -0.089966,0.327724 h -10e-8 v 10e-7 l -0.025703,0.47552 v 0 l -0.038559,0.456245 -2e-7,1e-6 -0.07711,0.37913 -2e-7,10e-7 -4e-7,1e-6 -0.1542239,0.359851 h -10e-8 l -0.1927794,0.41769 h -2e-7 l -0.212055,0.411263 h -2e-7 l -0.1028135,0.231334 h -10e-8 l -1e-7,10e-7 -0.051407,0.192775 h -1e-7 v 0 0.790392 10e-7 l -2e-7,10e-7 -3e-7,1e-6 -0.089965,0.269889 -0.1028137,0.314872 -1e-7,10e-7 -0.07711,0.218481 -3e-7,10e-7 h -5e-7 l -5e-7,10e-7 -6e-7,1e-6 -0.1606505,0.179926 -8e-7,1e-6 -0.11566865,0.102817 h -1.7e-7 -3e-8 l -0.0128517,0.1735 z"
       id="path8" />
  </g>
  <g
     id="g9">
    <path
       fill-rule="evenodd"
       fill="#810608"
       stroke="#555555"
       stroke-width="0"
       opacity="1"
       d="m 6.5929794,38.746696 1e-7,10e-7 0.025703,0.167075 10e-8,10e-7 v 0 l 0.07711,0.179924 h 1e-7 l 0.064262,0.134944 10e-8,10e-7 0.064258,0.141371 5e-7,10e-7 2e-7,1e-6 0.032127,0.160648 v 0 l 0.019279,0.08996 1e-7,10e-7 1e-7,10e-7 v 1e-6 l -0.00719,0.14807 v 0 h 2e-7 l 0.3258564,-0.0063 h 1e-6 9e-7 l 1e-6,10e-7 h 9e-7 9e-7 l 0.087727,0.04386 7e-7,10e-7 h 8e-7 l 7e-7,10e-7 6e-7,1e-6 0.087728,0.09399 7e-7,10e-7 6e-7,1e-6 h 5e-7 l 4e-7,10e-7 0.062663,0.18173 2e-7,10e-7 0.043865,0.169191 2e-7,10e-7 1e-7,10e-7 v 1e-6 10e-7 l -0.00626,0.06893 v 0 h 2e-7 l 0.2443916,-0.0063 h 1.1e-6 l 0.2945205,0.02507 h 6e-7 l 0.3070594,0.04387 1.1e-6,1e-6 0.4386551,0.112796 h 4e-7 l 0.3195907,0.094 1.2e-6,1e-6 0.3195904,0.14413 h 1.1e-6 l 0.2882565,0.17546 10e-7,10e-7 0.2005254,0.156661 h 6e-7 l 6e-7,1e-6 6e-7,10e-7 h 5e-7 l 0.075197,0.11906 5e-7,1e-6 4e-7,10e-7 3e-7,10e-7 2e-7,1e-6 1e-7,10e-7 v 10e-7 l -0.00627,0.125328 -2e-7,2e-6 -0.018798,0.106525 -2e-7,10e-7 -3e-7,1e-6 -4e-7,10e-7 -4e-7,10e-7 -5e-7,1e-6 h -6e-7 l -0.106529,0.119062 -4e-7,10e-7 -0.075197,0.112796 h -1e-7 l -0.068933,0.112797 h -10e-8 v 0 l 0.031334,0.131595 10e-8,10e-7 h 1e-7 l 0.1065289,0.150394 h 4e-7 l 0.1817281,0.194263 v 10e-7 h 1e-6 l 0.23186,0.181728 h 10e-7 v 0 l 0.269458,0.137863 v 0 h 1e-6 l 0.35719,0.0376 h 1e-6 l 0.294522,0.06266 h 1e-6 v 0 l 0.231859,0.08773 10e-7,10e-7 h 10e-7 l 1e-6,1e-6 v 10e-7 l 0.181727,0.175462 10e-7,1e-6 0.144128,0.175461 v 0 0 l 0.112797,0.100265 v 0 0 l 0.344657,0.0376 h 10e-7 l 0.501319,0.0188 h 10e-7 l 0.419854,0.04387 h 10e-7 l 0.394788,0.06893 v 0 l 0.532654,0.10653 v 0 l 0.363457,0.0752 v 0 l 0.313326,0.03133 v 0 h 0.225591 10e-7 1e-6 10e-7 10e-7 v 10e-7 l 0.26319,0.131593 1e-6,10e-7 v 0 l 10e-7,10e-7 1e-6,1e-6 0.200526,0.231859 v 0 10e-7 l 0.23186,0.194259 1e-6,10e-7 0.21306,0.23186 0.419855,0.457454 10e-7,10e-7 0.150395,0.206794 1e-6,10e-7 0.17546,0.281989 1e-6,10e-7 0.137862,0.313323 1e-6,1e-6 v 10e-7 l 0.06893,0.28826 v 0 0 l 0.131594,0.169195 v 10e-7 h 1e-6 v 10e-7 l 1e-6,1e-6 v 10e-7 1e-6 l 0.01253,0.219323 v 0 0 l 0.0564,0.162929 v 1e-6 0 l 0.150393,0.144125 v 0 l 1e-6,1e-6 v 10e-7 l 10e-7,10e-7 v 0 1e-6 l 0.05013,0.200529 h 10e-7 l 0.04387,0.150394 v 0 0 l 0.150394,0.08773 v 0 0 h 0.238125 1e-6 l 1e-6,1e-6 h 10e-7 1e-6 l 0.22559,0.08773 1e-6,10e-7 h 10e-7 l 0.125331,0.08773 v 0 h 1e-6 l 0.150394,0.0564 v 10e-7 -10e-7 l 0.169195,-0.0564 v 0 0 l 0.112797,-0.1128 v -10e-7 0 l 0.03133,-0.181724 v 0 0 l -0.0188,-0.194263 v -10e-7 0 l -0.100264,-0.294524 v -10e-7 0 l -0.14413,-0.238124 -10e-7,-1e-6 -0.09399,-0.187993 v 0 l -1e-6,-10e-7 v -2e-6 -10e-7 -1e-6 -10e-7 l 0.0376,-0.225587 v -10e-7 -10e-7 -1e-6 l 1e-6,-10e-7 v 0 l 10e-7,-10e-7 0.26319,-0.294522 1e-6,-1e-6 10e-7,-10e-7 0.35719,-0.250663 h 10e-7 l 0.319589,-0.187991 1e-6,-10e-7 h 1e-6 10e-7 1e-6 l 0.35092,-0.06266 h 1e-6 2e-6 l 0.401054,0.0188 h 1e-6 l 0.451186,0.06266 h 10e-7 l 0.419855,0.094 v 0 l 0.482521,0.0752 v 0 l 0.451189,0.02507 v 0 0 l 0.396423,-0.06549 v 0 l 0.551452,-0.106533 h 10e-7 1e-6 1e-6 l 0.438652,0.05013 v 0 l 0.154861,0.02367 v 0 0 l -0.06739,-0.143012 v -10e-7 -1e-6 l -0.04477,-0.173041 -0.03731,-0.142952 v -10e-7 l -0.08232,-0.195678 v -1e-6 l -0.05975,-0.203153 v -10e-7 -10e-7 -1e-6 0 l 0.02331,-0.375933 v -10e-7 -1e-6 -10e-7 l 1e-6,-1e-6 v -10e-7 h 10e-7 v -10e-7 l 1e-6,-1e-6 0.10547,-0.09754 v 0 l 0.113021,-0.112571 v 0 l 1e-6,-10e-7 0.083,-0.142707 v 0 h 1e-6 l 0.05296,-0.15781 v 0 -1e-6 l -0.02972,-0.180534 v 0 l -0.04477,-0.173042 v 0 0 l -0.08243,-0.143043 -1e-6,-1e-6 -0.06739,-0.143009 v 0 l -0.08238,-0.165599 v -10e-7 l -0.08248,-0.120483 h -1e-6 v 0 l -0.09005,-0.09042 v 0 l -0.112524,-0.13558 -10e-7,-1e-6 -1e-6,-10e-7 v -10e-7 0 l -1e-6,-1e-6 -0.03113,-0.144464 v 0 0 l -0.148748,0.0062 -0.07128,0.0031 h -10e-7 v 0 l -0.09297,0.04648 v 0 0 l -0.09297,0.07747 -10e-7,10e-7 h -1e-6 l -0.154945,0.08057 -10e-7,10e-7 h -1e-6 l -0.204527,0.06198 h -1e-6 -1e-6 l -0.14255,0.0124 h -1e-6 -0.151846 -1e-6 -10e-7 l -0.173537,-0.04338 h -1e-6 l -1e-6,-10e-7 h -1e-6 l -10e-7,-10e-7 -0.192132,-0.151845 -1e-6,-1e-6 v -10e-7 l -10e-7,-10e-7 -0.09917,-0.145651 v 0 0 l -0.161144,0.133255 v 0 l -0.179739,0.164245 v 0 l -10e-7,10e-7 -0.226221,0.14255 -10e-7,1e-6 h -1e-6 -1e-6 l -0.16424,0.04958 h -1e-6 -10e-7 -1e-6 -1e-6 l -0.164241,-0.0124 -10e-7,-1e-6 -0.195231,-0.04338 h -2e-6 l -0.272706,-0.102264 v 0 l -0.418355,-0.179741 h -10e-7 l -1e-6,-10e-7 -0.254111,-0.173537 v -10e-7 l -0.340574,-0.205631 h -1e-6 l -0.224908,-0.09639 v -10e-7 h -1e-6 l -0.30202,-0.01285 v 0 l -0.488371,-0.0064 v 0 h -0.411259 -1e-6 -10e-7 l -1e-6,-1e-6 h -1e-6 -10e-7 l -1e-6,-10e-7 -1e-6,-10e-7 -0.09638,-0.08353 -1e-6,-10e-7 -10e-7,-1e-6 v -10e-7 l -0.07711,-0.122089 -1e-6,-10e-7 v -10e-7 l -10e-7,-1e-6 v -10e-7 -10e-7 l -0.0064,-0.250611 v -1e-6 0 l -0.06426,-0.09639 v 0 0 h -0.263464 v 0 l -0.629746,0.05783 v 0 l -0.533353,0.08354 h -10e-7 l -0.559056,0.05141 h -1e-6 l -0.353427,0.01285 h -10e-7 l -0.308443,-0.03213 h -10e-7 l -1e-6,-1e-6 v 0 h -10e-7 l -0.276315,-0.141371 -10e-7,-10e-7 -1e-6,-1e-6 v 0 l -0.179925,-0.186351 v 0 0 l -0.224909,-0.147796 v -1e-6 0 l -0.308445,-0.06426 v 0 0 l -0.276317,0.07069 h -1e-6 v 0 l -0.160646,0.07069 h -10e-7 -1e-6 l -10e-7,1e-6 h -1e-6 -0.205626 -1e-6 l -10e-7,-1e-6 -0.154221,-0.03213 h -1e-6 l -10e-7,-1e-6 h -1e-6 l -10e-7,-10e-7 h -10e-7 l -0.147792,-0.128514 -10e-7,-10e-7 h -1e-6 v -1e-6 l -10e-7,-10e-7 v -10e-7 l -0.07711,-0.199205 h -10e-7 v 0 l -0.224908,-0.141369 v 0 h -1e-6 l -0.379131,-0.102814 v 0 l -0.295593,-0.06426 v 0 l -0.167074,-0.0257 v 0 0 l -0.25704,0.0064 v 0 0 l -0.199203,0.06426 h -1e-6 v 0 l -0.186351,0.122093 v 0 l -10e-7,10e-7 -0.186349,0.07711 h -10e-7 -1e-6 -10e-7 -1e-6 -10e-7 l -0.09638,-0.0064 h -1e-6 -10e-7 -10e-7 l -1e-6,-10e-7 v 0 l -10e-7,-10e-7 h -1e-6 l -10e-7,-1e-6 v -10e-7 l -1e-6,-10e-7 v -1e-6 l -10e-7,-10e-7 v 0 -10e-7 -1e-6 -10e-7 -10e-7 -1e-6 l 0.03213,-0.115655 v -1e-6 -10e-7 l 10e-7,-10e-7 v -1e-6 l 1e-6,-10e-7 0.122093,-0.122091 v 0 h 10e-7 l 0.05783,-0.15422 v -10e-7 0 l -0.0064,-0.237762 v 0 0 l -0.141372,-0.218483 h -1e-6 l -0.231332,-0.314869 v 0 l -0.2570406,-0.359855 -2e-7,-1e-6 -0.1863517,-0.289169 -0.1413707,-0.218483 h -10e-8 L 9.4831854,38.240458 h -3e-7 L 9.3675212,38.086239 h -5e-7 l -4e-7,-10e-7 -4e-7,-1e-6 -3e-7,-10e-7 -2e-7,-10e-7 -0.032128,-0.167071 -1e-7,-1e-6 v -10e-7 -10e-7 l 2e-7,-1e-6 2e-7,-10e-7 h 4e-7 l 0.04498,-0.102811 v 0 -10e-7 l -0.00643,-0.04498 v 0 h -2e-7 -0.051406 -3e-7 -2e-7 l -0.1670739,0.102813 -2e-7,10e-7 -0.154224,0.08997 h -6e-7 l -0.1285174,0.06426 -9e-7,1e-6 h -9e-7 -1e-6 l -0.199203,0.03213 h -9e-7 -9e-7 l -0.2698853,-0.0064 h -1e-6 -10e-7 -10e-7 -9e-7 l -9e-7,-10e-7 h -8e-7 l -8e-7,-1e-6 -0.1028108,-0.08996 h -2e-7 -2e-7 l -0.1220927,-0.0257 h -3e-7 -2e-7 l -0.192779,0.03855 h -3e-7 -3e-7 l -0.2120586,0.09639 h -3e-7 l -0.2313298,0.128516 -9e-7,10e-7 h -1e-6 l -0.2763157,0.08354 h -9e-7 -1e-6 l -0.1220919,0.01285 h -3e-7 -3e-7 l -0.070457,0.03144 h -2e-7 v 0 l -0.018597,0.09297 v 0 h 1e-7 l 0.034085,0.05268 h 5e-7 l 4e-7,10e-7 3e-7,1e-6 2e-7,10e-7 2e-7,10e-7 v 1e-6 10e-7 l -1e-7,10e-7 -3e-7,1e-6 -3e-7,10e-7 -4e-7,1e-6 h -4e-7 l -0.043379,0.06817 -5e-7,1e-6 h -6e-7 l -6e-7,10e-7 -8e-7,10e-7 h -7e-7 l -8e-7,1e-6 h -9e-7 -9e-7 l -0.1146569,0.03099 h -1e-6 -1e-6 -1e-6 l -0.1549436,-0.0062 h -3e-7 -2e-7 l -0.086769,0.04338 -2e-7,1e-6 h -1e-7 l -0.096393,0.134944 z"
       id="path9" />
  </g>
  <g
     id="g10">
    <path
       fill-rule="evenodd"
       fill="#543a55"
       stroke="#555555"
       stroke-width="0"
       opacity="1"
       d="m 5.3312302,42.935192 h 10e-8 l 0.2382276,0.541424 h 1e-7 2e-7 l 0.2490574,0.270714 h 2e-7 2e-7 l 0.1840854,0.119113 2e-7,1e-6 h 3e-7 l 0.3356811,0.02166 h 1.1e-6 l 0.1840837,0.03249 1e-6,10e-7 h 1e-6 1e-6 l 0.1407683,0.0758 h 2e-7 3e-7 l 0.2273886,0.02166 h 10e-7 9e-7 10e-7 l 9e-7,1e-6 h 8e-7 l 8e-7,10e-7 7e-7,1e-6 h 7e-7 l 6e-7,10e-7 5e-7,10e-7 4e-7,1e-6 3e-7,10e-7 3e-7,10e-7 10e-8,1e-6 1e-7,10e-7 v 0.249044 0 l 1e-7,1e-6 0.097458,0.184085 h 2e-7 1e-7 l 0.1840835,0.19491 7e-7,1e-6 6e-7,10e-7 h 5e-7 l 3e-7,10e-7 3e-7,1e-6 2e-7,10e-7 0.021656,0.151597 1e-7,10e-7 0.01083,0.184085 h 1e-7 2e-7 l 0.1082835,0.06497 h 3e-7 2e-7 l 0.1515923,-0.04331 h 1e-6 1e-6 1e-6 10e-7 1e-6 9e-7 l 1e-6,10e-7 h 9e-7 l 8e-7,1e-6 h 8e-7 l 7e-7,10e-7 6e-7,10e-7 6e-7,1e-6 0.1191099,0.194905 0.1407699,0.227398 h 1e-7 2e-7 l 0.1732556,0.173259 1e-7,10e-7 h 3e-7 l 0.075798,0.03249 h 2e-7 2e-7 l 0.086627,-0.04332 h 7e-7 l 0.1624236,-0.06497 1e-6,-10e-7 h 1.1e-6 1e-6 1.1e-6 l 0.2057384,0.01083 h 9e-7 8e-7 9e-7 l 0.3356804,0.108284 h 4e-7 l 0.2057415,0.0758 h 2e-7 2e-7 l 0.2273975,0.02166 h 5e-7 0.1732554 2e-7 v -1e-6 l -0.021655,-0.08662 -2e-7,-1e-6 -10e-8,-10e-7 v -10e-7 l 10e-8,-1e-6 2e-7,-10e-7 4e-7,-10e-7 4e-7,-1e-6 0.075797,-0.151593 h 4e-7 l 6e-7,-10e-7 6e-7,-1e-6 7e-7,-10e-7 h 7e-7 l 8e-7,-10e-7 h 8e-7 l 9e-7,-1e-6 0.1191055,-0.04331 9e-7,-10e-7 h 9e-7 10e-7 1e-6 9e-7 10e-7 l 0.3248503,0.0758 h 10e-7 l 10e-7,1e-6 h 9e-7 l 8e-7,10e-7 h 8e-7 l 0.1191118,0.108283 h 2e-7 2e-7 l 0.1949084,0.04331 h 1e-6 10e-7 l 1e-6,1e-6 h 10e-7 l 1e-6,10e-7 v 10e-7 h 10e-7 l 0.227397,0.292367 h 1e-6 v 10e-7 l 0.108283,0.0758 h 1e-6 v 0 l 0.238217,-0.01082 h 10e-7 10e-7 1e-6 10e-7 l 1e-6,1e-6 h 10e-7 v 10e-7 h 10e-7 l 1e-6,10e-7 h 10e-7 v 1e-6 l 1e-6,10e-7 0.155928,0.29886 v 1e-6 0 l 0.194912,0.207904 v 10e-7 l 0.233896,0.194911 v 0 h 10e-7 l 0.246888,0.013 h 1e-6 0.181914 1e-6 10e-7 l 1e-6,10e-7 v 0 h 10e-7 l 10e-7,10e-7 h 1e-6 l 10e-7,1e-6 v 10e-7 l 1e-6,10e-7 v 1e-6 l 10e-7,10e-7 0.06497,0.168915 v 1e-6 0 l 0.181919,0.194911 v 0 l 1e-6,10e-7 0.194911,0.103954 v 0 h 1e-6 0.350842 2e-6 l 0.350839,0.05198 10e-7,1e-6 h 1e-6 v 0 l 10e-7,10e-7 h 1e-6 l 10e-7,10e-7 1e-6,1e-6 0.103949,0.116944 h 10e-7 v 0 l 0.272873,0.05198 h 10e-7 l 10e-7,10e-7 v 0 h 1e-6 l 10e-7,1e-6 1e-6,10e-7 v 0 l 10e-7,10e-7 v 1e-6 l 1e-6,10e-7 v 0 l 0.05197,0.142925 1e-6,1e-6 v 10e-7 10e-7 1e-6 10e-7 1e-6 l -0.05198,0.220896 -1e-6,10e-7 v 1e-6 10e-7 l -10e-7,10e-7 -0.142933,0.19491 h -1e-6 v 1e-6 l -0.207908,0.181918 v 1e-6 l -0.220901,0.207908 h -1e-6 v 0 l -0.168924,0.311859 v 0 l -0.181921,0.415814 v 0 l -0.09096,0.233898 v 0 0 0.233894 0 h 10e-7 l 0.09096,0.142937 v 0 0 h 0.220903 10e-7 l 0.324854,0.03898 h 10e-7 l 1e-6,10e-7 0.272877,0.103953 1e-6,1e-6 0.337848,0.168926 h 10e-7 l 0.389827,0.168922 v 0 l 0.324856,0.142937 v 0 0 l 0.376831,-0.05198 v 0 0 l 0.363838,-0.12994 v 0 h 10e-7 l 0.33785,-0.207905 v 0 l 0.454796,-0.259887 v -10e-7 l 0.467789,-0.233893 1e-6,-10e-7 h 1e-6 l 0.389827,-0.103954 h 10e-7 l 0.350841,-0.05197 h 2e-6 1e-6 l 0.428807,0.03898 v 0 l 0.281991,0.01567 h 10e-7 1e-6 l 0.271544,0.06266 h 1e-6 1e-6 l 10e-7,1e-6 0.219756,0.138949 v 10e-7 l 0.250657,0.198439 1e-6,1e-6 1e-6,10e-7 0.167105,0.203657 1e-6,10e-7 v 1e-6 l 0.203658,0.37599 1e-6,10e-7 v 10e-7 l 0.109663,0.407317 v 0 l 0.08877,0.344657 10e-7,10e-7 0.03133,0.261104 v 0 10e-7 l 0.07833,0.172328 v 0 0 l 0.130553,0.187992 v 0 0 l 0.167106,0.172329 v 0 0 l 0.219328,0.120106 v 0 0 l 0.245438,0.07311 v 0 0 l 1.630612,-0.02359 h 1e-6 10e-7 1e-6 1e-6 l 1e-6,10e-7 h 10e-7 l 0.06547,0.04281 v 0 0 l 0.03038,-0.150333 v -10e-7 l 0.05311,-0.233009 v 0 l 0.06827,-0.293133 v 0 l 0.05314,-0.248046 1e-6,-10e-7 0.105865,-0.293056 v 0 l 0.05298,-0.172847 v -1e-6 l 0.03802,-0.210479 v -10e-7 l 0.0079,-0.172938 v -10e-7 0 l -0.01486,-0.09026 v -1e-6 -10e-7 l 3.16e-4,-0.157915 v -10e-7 -10e-7 l 0.01524,-0.09773 v -1e-6 -10e-7 l 1e-6,-10e-7 v -1e-6 h 1e-6 v -10e-7 l 0.0829,-0.09007 v -10e-7 h 1e-6 l 0.112958,-0.08249 v -10e-7 l 0.09794,-0.09004 v 0 l 0.113054,-0.127609 v 0 l 0.07542,-0.112644 v 0 -10e-7 l 0.03044,-0.180411 v -10e-7 0 l 0.0035,-1.722022 v -10e-7 0 l -0.05989,-0.135474 v -10e-7 0 l -0.24768,-0.233609 v -1e-6 h -1e-6 v -10e-7 l -10e-7,-10e-7 v -1e-6 l -1e-6,-10e-7 v -10e-7 -1e-6 l 1.2e-4,-0.06015 v -10e-7 l 1e-6,-10e-7 v -1e-6 -10e-7 l 1e-6,-1e-6 v -10e-7 l 10e-7,-10e-7 v 0 l 0.09795,-0.09755 v -10e-7 0 l 0.128258,-0.210296 v 0 l 0.09818,-0.210358 v 0 l 0.07557,-0.187843 v 0 0 l -0.007,-0.263207 v 0 l 6.66e-4,-0.330867 v -10e-7 l 0.0157,-0.330831 v -10e-7 -1e-6 l 1e-6,-10e-7 v -10e-7 -1e-6 l 10e-7,-10e-7 1e-6,-10e-7 v 0 l 1e-6,-1e-6 h 10e-7 l 0.353829,-0.20232 1e-6,-10e-7 v 0 h 10e-7 1e-6 1e-6 1e-6 l 0.248118,0.01554 h 1e-6 l -1e-6,-1e-6 -0.05231,-0.165538 v 0 0 l -0.154861,-0.02367 v 0 l -0.438654,-0.05013 v 0 0 l -0.551452,0.106533 h -1e-6 l -0.396422,0.06549 h -1e-6 -1e-6 l -0.451188,-0.02507 v 0 l -0.482521,-0.0752 v 0 l -0.419855,-0.094 v 0 l -0.451187,-0.06266 h -1e-6 l -0.401055,-0.0188 h -10e-7 v 0 l -0.350923,0.06266 v 0 0 l -0.319591,0.187992 h -1e-6 l -0.357191,0.250664 v 0 0 l -0.263193,0.294525 v 0 0 l -0.0376,0.225593 v 10e-7 0 l 0.094,0.187995 v 1e-6 l 0.14413,0.238123 v 1e-6 l 1e-6,10e-7 0.100263,0.294523 v 1e-6 2e-6 l 0.0188,0.194261 v 0 10e-7 l -1e-6,10e-7 -0.03133,0.18172 v 10e-7 10e-7 l -10e-7,1e-6 v 10e-7 l -1e-6,10e-7 -1e-6,1e-6 -0.112792,0.112796 -1e-6,1e-6 -1e-6,10e-7 h -10e-7 v 0 l -1e-6,10e-7 -0.16919,0.05639 -1e-6,1e-6 h -10e-7 -1e-6 -1e-6 -10e-7 -1e-6 l -1e-6,-1e-6 -0.150389,-0.05639 -10e-7,-10e-7 h -1e-6 l -1e-6,-10e-7 -0.12533,-0.08773 h -1e-6 v 0 l -0.225593,-0.08773 v -10e-7 0 h -0.238167 -1e-6 -10e-7 -1e-6 -1e-6 l -10e-7,-1e-6 -0.150389,-0.08773 h -1e-6 v -10e-7 l -1e-6,-10e-7 h -10e-7 v -1e-6 l -1e-6,-10e-7 v -1e-6 -10e-7 l -0.04386,-0.15039 -10e-7,-10e-7 -0.05013,-0.20053 v 0 -10e-7 l -0.150393,-0.144125 h -1e-6 v -10e-7 l -1e-6,-1e-6 v -10e-7 -10e-7 l -0.0564,-0.162926 v 0 -10e-7 -10e-7 l -0.01253,-0.219325 v 0 0 L 16.782141,45.91615 v -1e-6 l -1e-6,-10e-7 v -10e-7 -1e-6 l -0.06893,-0.288259 v 0 -1e-6 l -0.137863,-0.313323 -1e-6,-10e-7 -0.17546,-0.281989 v -10e-7 l -0.150397,-0.206794 v 0 L 16.023896,44.56885 v 0 l -0.194262,-0.200527 v 0 l -0.21306,-0.231861 v 0 l -0.231861,-0.194259 v -10e-7 h -10e-7 l -0.200526,-0.23186 -1e-6,-10e-7 v 0 l -0.263192,-0.131595 h -10e-7 v 0 h -0.225593 -10e-7 l -0.313325,-0.03133 h -10e-7 l -0.363456,-0.0752 -0.532654,-0.10653 v 0 l -0.394788,-0.06893 h -1e-6 l -0.419854,-0.04387 h -1e-6 l -0.501319,-0.0188 h -1e-6 l -0.344654,-0.0376 -10e-7,-10e-7 h -1e-6 -10e-7 l -10e-7,-1e-6 h -1e-6 l -10e-7,-10e-7 -0.112793,-0.100263 h -1e-6 l -10e-7,-1e-6 -0.144128,-0.17546 v 0 l -0.181728,-0.175465 v 0 0 l -0.231861,-0.08773 v 0 h -10e-7 l -0.294522,-0.06266 h -10e-7 l -0.357189,-0.0376 h -1e-6 -10e-7 v 0 l -1e-6,-1e-6 -0.269457,-0.137862 v 0 l -1e-6,-10e-7 -0.23186,-0.181727 h -10e-7 v -10e-7 l -0.1817274,-0.194262 -9e-7,-10e-7 -0.1065277,-0.150393 -5e-7,-1e-6 h -5e-7 l -3e-7,-10e-7 -3e-7,-10e-7 -0.031332,-0.13159 -2e-7,-10e-7 -10e-8,-1e-6 v -10e-7 l 10e-8,-10e-7 2e-7,-1e-6 3e-7,-10e-7 4e-7,-10e-7 h 5e-7 l 0.068931,-0.112794 h 2e-7 l 0.075197,-0.112796 8e-7,-10e-7 0.1065305,-0.119064 h 2e-7 v 0 l 0.018799,-0.106529 v 0 l 0.00627,-0.125332 v 0 h -10e-8 l -0.075199,-0.119064 h -10e-8 -10e-8 L 9.6822052,40.909214 h -5e-7 L 9.3939476,40.733753 h -5e-7 l -0.319591,-0.144131 h -6e-7 l -0.3195911,-0.094 h -2e-7 l -0.4386555,-0.112796 -5e-7,-1e-6 -0.3070599,-0.04387 h -2e-7 l -0.294521,-0.02507 h -5e-7 l -0.2443809,0.0063 h -1e-6 -10e-7 -9e-7 -10e-7 l -9e-7,-1e-6 h -8e-7 l -9e-7,-10e-7 -7e-7,-10e-7 h -7e-7 l -6e-7,-1e-6 -5e-7,-10e-7 -4e-7,-10e-7 -4e-7,-1e-6 -2e-7,-10e-7 -2e-7,-1e-6 v -10e-7 -10e-7 l 0.00626,-0.06892 v 0 0 l -0.043865,-0.169193 -2e-7,-1e-6 -0.062664,-0.181731 -1e-7,-10e-7 h -2e-7 l -0.08773,-0.09399 h -1e-7 -2e-7 l -0.08773,-0.04387 h -2e-7 -3e-7 l -0.3258586,0.0063 h -2e-7 v 0 l -0.012531,0.181728 v 0 l -0.012531,0.256925 -1e-7,1e-6 -2e-7,10e-7 -3e-7,1e-6 h -3e-7 l -5e-7,10e-7 -5e-7,10e-7 -0.1127947,0.156659 -8e-7,10e-7 -0.1754641,0.187996 h -1e-7 l -0.1879919,0.194259 h -2e-7 v 0 l -0.012535,0.256927 v 1e-6 h 1e-7 l 0.087734,0.256926 3e-7,10e-7 2e-7,10e-7 v 1e-6 0.106525 10e-7 l -10e-8,1e-6 -3e-7,10e-7 -3e-7,10e-7 -4e-7,1e-6 -0.1065318,0.206792 h -2e-7 l -0.2168194,0.371605 h -6e-7 l -0.2443919,0.33839 -4e-7,10e-7 -0.5434414,0.651748 z"
       id="path10" />
  </g>
  <g
     id="g11">
    <path
       fill-rule="evenodd"
       fill="#b29b15"
       stroke="#555555"
       stroke-width="0"
       opacity="1"
       d="m 1.9388085,46.520451 2e-7,-1e-6 0.1443773,-0.08121 h 8e-7 l 7e-7,-10e-7 h 8e-7 l 0.099252,-0.02707 h 10e-7 1e-6 1e-6 10e-7 1e-6 9e-7 l 1e-6,1e-6 h 9e-7 l 8e-7,10e-7 h 8e-7 l 7e-7,10e-7 6e-7,1e-6 6e-7,10e-7 h 4e-7 l 4e-7,10e-7 0.072186,0.207538 h 10e-8 10e-8 l 0.1173055,0.126331 h 1e-7 2e-7 l 0.1714512,0.108284 h 2e-7 2e-7 l 0.1714469,0.07219 h 6e-7 l 7e-7,10e-7 0.1624251,0.09926 h 2e-7 3e-7 l 0.072183,0.02707 9e-7,10e-7 h 9e-7 l 8e-7,10e-7 h 8e-7 l 7e-7,1e-6 6e-7,10e-7 5e-7,1e-6 5e-7,10e-7 3e-7,10e-7 3e-7,1e-6 1e-7,10e-7 10e-8,10e-7 v 0.415084 l -10e-8,1e-6 -1e-7,10e-7 -0.027073,0.162425 h -1e-7 l -0.054142,0.243641 h -10e-8 l -0.018047,0.153404 -10e-8,1e-6 v 0.207545 h 10e-8 v 1e-6 l 0.081219,0.19852 h 10e-8 10e-8 l 0.1082838,0.171452 h 10e-8 1e-7 l 0.1714513,0.19852 h 1e-7 2e-7 l 0.189502,0.126331 1.1e-6,10e-7 0.1624253,0.144382 h 3e-7 l 0.153404,0.117306 h 10e-8 l 0.063163,0.04512 h 2e-7 3e-7 0.1443693 1e-6 10e-7 l 9e-7,1e-6 h 10e-7 8e-7 l 9e-7,10e-7 h 8e-7 l 7e-7,1e-6 7e-7,10e-7 5e-7,10e-7 h 6e-7 l 4e-7,1e-6 3e-7,10e-7 2e-7,10e-7 2e-7,1e-6 0.027076,0.270705 v 0 h 2e-7 l 0.1353565,0.08121 h 2e-7 3e-7 l 0.1534027,0.03609 8e-7,10e-7 h 8e-7 8e-7 l 0.2075449,0.108284 h 4e-7 l 0.1985196,0.08121 8e-7,10e-7 h 8e-7 l 0.1804714,0.117305 h 7e-7 l 8e-7,10e-7 h 6e-7 l 0.2075451,0.243644 h 4e-7 l 0.1082875,0.144379 h 3e-7 l 0.090232,0.09926 h 2e-7 2e-7 0.3338809 5e-7 l 0.2075459,0.009 h 1e-7 l 0.3248492,0.01805 h 9e-7 9e-7 8e-7 l 9e-7,10e-7 h 8e-7 8e-7 l 0.1985219,0.135352 h 5e-7 l 0.1985204,0.108284 h 1e-7 l 0.2436406,0.126331 h 2e-7 2e-7 l 0.2165675,0.02707 h 6e-7 0.1985239 3e-7 2e-7 l 0.2165675,-0.09024 h 3e-7 10e-8 l 0.1714551,-0.171448 h 1e-7 2e-7 l 0.1443784,-0.243641 h 1e-7 v 0 l 0.033253,-0.216572 v 0 l 0.020889,-0.266323 v 0 -0.234997 0 l -0.00522,-0.276764 10e-8,-10e-7 1e-7,-1e-6 2e-7,-10e-7 4e-7,-10e-7 4e-7,-1e-6 5e-7,-10e-7 0.1201035,-0.18277 6e-7,-1e-6 6e-7,-10e-7 0.1827723,-0.18799 7e-7,-1e-6 7e-7,-10e-7 0.2245466,-0.15666 10e-7,-10e-7 h 1e-6 l 0.1932092,-0.07833 9e-7,-10e-7 h 9e-7 9e-7 10e-7 9e-7 9e-7 9e-7 l 9e-7,10e-7 h 9e-7 l 0.2140978,0.10444 h 9e-7 l 8e-7,10e-7 h 8e-7 l 7e-7,10e-7 0.1671043,0.198434 6e-7,1e-6 6e-7,10e-7 4e-7,1e-6 0.062665,0.146215 3e-7,10e-7 h 2e-7 l 0.067886,0.261104 h 10e-8 l 10e-8,10e-7 0.052221,0.09922 10e-8,10e-7 h 2e-7 l 0.3133236,0.130554 h 4e-7 l 0.3028807,0.140995 h 6e-7 l 0.3394328,0.187996 h 1.1e-6 l 0.3620236,0.262949 1e-6,1e-6 v 0 l 10e-7,10e-7 1e-6,1e-6 v 10e-7 0 l 0.109149,0.265075 v 1e-6 10e-7 1e-6 10e-7 l -0.01559,0.608126 v 0 l 0.0062,0.416336 v 0 0 l 0.09356,0.311859 0.171522,0.561348 v 0 0 l 0.193529,0.318271 v 1e-6 0 l 0.225594,0.218074 v 10e-7 l 0.330871,0.270709 v 0 h 10e-7 l 0.24063,0.08272 10e-7,10e-7 v 0 l 10e-7,1e-6 h 1e-6 l 10e-7,10e-7 v 0 l 0.157913,0.187993 v 1e-6 l 10e-7,10e-7 0.142875,0.28575 v 10e-7 l 0.210554,0.481262 v 0 0 l 0.120316,0.150398 v 0 0 l 0.210554,0.04512 v 0 0 l 0.293272,-0.05264 v 0 l 0.255669,-0.06016 h 1e-6 10e-7 10e-7 l 0.488785,0.03008 v 0 l 0.39103,0.0075 v 0 l 0.353429,0.0075 h 10e-7 l 0.135348,-0.0075 h 1e-6 10e-7 10e-7 1e-6 v 0 l 10e-7,10e-7 h 1e-6 l 10e-7,10e-7 10e-7,1e-6 v 0 l 1e-6,10e-7 v 10e-7 l 0.09776,0.203027 v 1e-6 0 l 0.127838,0.150394 v 0 0 h 0.300791 v 0 l 0.360948,0.0075 h 10e-7 l 0.203034,0.03008 10e-7,1e-6 h 1e-6 l 0.203032,0.0752 v 0 l 0.157913,0.06768 10e-7,10e-7 v 0 l 1e-6,1e-6 10e-7,10e-7 h 1e-6 l 0.172951,0.233108 1e-6,10e-7 v 10e-7 1e-6 l 10e-7,10e-7 v 0 1e-6 l 0.01504,0.165433 v 0 10e-7 l 0.0376,0.120315 v 0 0 l 0.195514,0.127838 v 0 h 10e-7 l 0.233113,0.05263 h 1e-6 l 0.473743,0.0376 1e-6,10e-7 h 1e-6 1e-6 l 10e-7,1e-6 0.195508,0.09775 1e-6,10e-7 v 1e-6 h 1e-6 l 10e-7,10e-7 1e-6,10e-7 v 1e-6 0 l 1e-6,10e-7 v 10e-7 1e-6 l 0.02256,0.187982 v 10e-7 1e-6 10e-7 10e-7 1e-6 l -1e-6,10e-7 v 10e-7 l -10e-7,1e-6 h -1e-6 l -0.09775,0.09775 h -10e-7 v 10e-7 l -0.0376,0.09776 v 1e-6 0 l 0.0752,0.105274 v 0 0 l 0.443667,-0.0376 1e-6,-10e-7 10e-7,10e-7 h 1e-6 l 0.210549,0.0376 h 1e-6 l 10e-7,1e-6 h 1e-6 l 1e-6,10e-7 v 0 l 1e-6,1e-6 h 10e-7 l 0.105273,0.112794 1e-6,1e-6 v 0 l 0.220903,0.12994 v 0 0 l 0.337846,0.07796 h 1e-6 l 0.220901,0.02599 v 0 l 0.350843,0.05197 h 1e-6 l 0.337846,0.013 h 1e-6 1e-6 l 10e-7,10e-7 h 1e-6 v 0 l 0.246886,0.142935 1e-6,1e-6 h 1e-6 v 10e-7 l 0.246888,0.272875 1e-6,10e-7 0.220899,0.220901 v 0 0 l 0.194912,0.09096 v 0 0 l 0.311861,-0.03898 v 0 0 l 0.322305,-0.09606 1e-6,-10e-7 0.214103,-0.04177 h 1e-6 l 0.318545,-0.03133 1e-6,-10e-7 0.276769,-0.06789 h 1e-6 l 0.250657,-0.08355 v 0 h 1e-6 l 0.172328,-0.104439 v 0 h 10e-7 l 0.106609,-0.09177 v 0 0 l -0.02547,-0.09413 v -10e-7 0 l -0.157701,-0.105594 h -1e-6 v 0 l -0.157832,-0.03791 h -1e-6 v 0 l -10e-7,-10e-7 -1e-6,-1e-6 h -1e-6 l -1e-6,-10e-7 v -10e-7 l -10e-7,-1e-6 v -10e-7 h -1e-6 v -1e-6 -10e-7 l -0.02215,-0.203075 v -1e-6 -2e-6 l 0.03058,-0.248087 v 0 -1e-6 l -0.05244,-0.09786 v -1e-6 0 l -0.120104,-0.105514 v 0 0 l -0.120157,-0.07543 h -1e-6 l -10e-7,-10e-7 v -1e-6 h -1e-6 v -10e-7 l -1e-6,-10e-7 v -1e-6 -10e-7 l -10e-7,-1e-6 v -10e-7 -10e-7 l 10e-7,-1e-6 v -10e-7 -10e-7 l 1e-6,-1e-6 0.05283,-0.09764 1e-6,-10e-7 v 0 l 10e-7,-1e-6 1e-6,-10e-7 v 0 l 1e-6,-10e-7 h 1e-6 10e-7 l 1e-6,-1e-6 h 1e-6 l 0.105301,-0.01483 v 0 l 0.195621,-0.05225 h 10e-7 v 0 l 0.120615,-0.150154 v 0 0 l -0.04474,-0.188083 v -1e-6 l -0.05984,-0.158031 v 0 0 l -0.05137,-0.0816 -10e-7,-10e-7 -0.07602,-0.136733 v 0 -10e-7 L 21.84326,54.9229 h -1e-6 v 0 l -0.08271,-1.64e-4 h -1e-6 l -1e-6,-10e-7 h -10e-7 -1e-6 l -1e-6,-1e-6 h -1e-6 l -10e-7,-10e-7 h -1e-6 v -10e-7 l -1e-6,-1e-6 v -10e-7 l -10e-7,-1e-6 v 0 -10e-7 -10e-7 -1e-6 l 5.89e-4,-0.29326 v -10e-7 0 l -0.04472,-0.195602 h -1e-6 l -0.04459,-0.263283 v 0 l -0.04464,-0.240722 v -1e-6 l -0.01454,-0.248179 v -10e-7 l 4.39e-4,-0.218073 v -10e-7 -10e-7 -1e-6 l 0.04544,-0.157819 h 1e-6 v -10e-7 -1e-6 l 1e-6,-10e-7 0.120648,-0.16519 v 0 l 0.08294,-0.112632 v -10e-7 h 1e-6 l 0.09794,-0.09004 v 0 0 l -0.02994,-0.06774 v 0 0 l -0.09783,0.0374 h -1e-6 l -0.09781,0.02988 -1e-6,1e-6 v 0 h -1e-6 -10e-7 -1e-6 l -0.150346,-0.02286 h -1e-6 v 0 l -1e-6,-10e-7 h -1e-6 l -10e-7,-1e-6 h -1e-6 l -0.09008,-0.07538 -1e-6,-1e-6 v -10e-7 l -10e-7,-10e-7 v -1e-6 l -0.0674,-0.135491 v -10e-7 0 l -10e-7,-10e-7 -0.02973,-0.173008 -1e-6,-10e-7 v -1e-6 -10e-7 l 1e-6,-10e-7 v -1e-6 0 l 0.06045,-0.142751 v -10e-7 l 0.105684,-0.202819 v 0 0 l 0.0077,-0.07518 v 0 0 l -0.06548,-0.04281 v 0 0 l -1.630614,0.02359 h -1e-6 l -1e-6,-10e-7 h -10e-7 L 19.6292,52.017623 h -1e-6 -1e-6 l -0.219325,-0.120105 -1e-6,-10e-7 h -1e-6 l -10e-7,-10e-7 -0.167105,-0.172327 v -10e-7 h -10e-7 l -0.130551,-0.187991 -1e-6,-10e-7 v -1e-6 l -0.07833,-0.172326 v -10e-7 l -10e-7,-1e-6 v -10e-7 l -0.03133,-0.261103 v -10e-7 l -0.08877,-0.344657 v 0 l -0.109663,-0.407318 v 0 -1e-6 l -0.203659,-0.375991 v 0 0 l -0.167107,-0.203659 v 0 0 l -0.250658,-0.198441 v 0 l -0.219757,-0.13895 v 0 0 l -0.271547,-0.06266 v 0 h -10e-7 l -0.281991,-0.01567 v 0 l -0.428808,-0.03898 v 0 h -1e-6 l -0.350843,0.05197 v 0 l -0.389827,0.103954 h -1e-6 v 0 l -0.46779,0.233894 v 0 l -0.454796,0.259888 v 0 l -0.33785,0.207904 -1e-6,1e-6 h -10e-7 l -0.363836,0.12994 h -10e-7 -1e-6 l -0.376827,0.05198 h -1e-6 -10e-7 -1e-6 l -10e-7,-10e-7 h -10e-7 -1e-6 l -0.324853,-0.142936 -0.389827,-0.168922 h -1e-6 L 13.18628,49.876181 v 0 l -0.272878,-0.103955 h -10e-7 v 0 l -0.324855,-0.03898 h -10e-7 -0.220897 -1e-6 -10e-7 -1e-6 l -10e-7,-1e-6 h -1e-6 l -10e-7,-10e-7 h -10e-7 l -1e-6,-10e-7 v -1e-6 l -10e-7,-10e-7 -0.09095,-0.142929 -10e-7,-10e-7 v -10e-7 -1e-6 -10e-7 l -10e-7,-10e-7 v -1e-6 -0.233889 -10e-7 l 10e-7,-1e-6 v -10e-7 -10e-7 l 0.09096,-0.233896 v 0 l 0.181921,-0.415813 v -1e-6 l 0.168924,-0.311857 v -1e-6 l 10e-7,-10e-7 1e-6,-10e-7 0.2209,-0.207907 v -1e-6 l 0.207908,-0.181918 v -1e-6 h 10e-7 l 0.142934,-0.194911 v -10e-7 0 l 0.05198,-0.220901 v 0 0 l -0.05198,-0.142933 v 0 0 l -0.272875,-0.05198 -10e-7,-10e-7 h -1e-6 -10e-7 v -10e-7 h -10e-7 l -1e-6,-1e-6 -10e-7,-10e-7 -0.10395,-0.116944 v 0 0 l -0.350843,-0.05198 h -10e-7 -0.35084 -10e-7 -10e-7 l -1e-6,-10e-7 h -10e-7 -1e-6 L 12.01681,47.121408 h -10e-7 l -1e-6,-1e-6 -10e-7,-10e-7 -0.181916,-0.194909 -1e-6,-10e-7 -10e-7,-10e-7 v 0 -1e-6 l -0.06497,-0.168921 v 0 0 h -0.18192 -10e-7 l -0.246885,-0.013 h -10e-7 l -1e-6,-1e-6 h -10e-7 -1e-6 l -10e-7,-10e-7 h -1e-6 v -10e-7 l -0.233893,-0.194909 -1e-6,-10e-7 -0.194911,-0.207903 -1e-6,-1e-6 v -10e-7 l -10e-7,-10e-7 -0.15593,-0.298864 v -10e-7 h -1e-6 l -0.23822,0.01083 h -10e-7 -10e-7 -1e-6 -10e-7 l -1e-6,-10e-7 v 0 h -10e-7 l -0.10828,-0.0758 h -10e-7 l -1e-6,-1e-6 v -10e-7 l -0.227399,-0.292368 v 0 0 l -0.1949099,-0.04332 h -1e-6 -10e-7 l -9e-7,-1e-6 h -9e-7 l -8e-7,-10e-7 -0.1191117,-0.108282 h -2e-7 -3e-7 L 9.54358,45.458144 h -2e-7 -3e-7 l -0.1191115,0.04331 h -2e-7 -2e-7 l -0.0758,0.151599 -1e-7,10e-7 h 1e-7 l 0.021653,0.08662 2e-7,10e-7 10e-8,1e-6 v 10e-7 l -10e-8,10e-7 -2e-7,1e-6 -3e-7,10e-7 -4e-7,10e-7 -5e-7,1e-6 -6e-7,10e-7 -6e-7,10e-7 h -8e-7 l -8e-7,1e-6 h -8e-7 l -9e-7,10e-7 h -1e-6 -10e-7 l -10e-7,1e-6 h -1e-6 -0.1733042 -9e-7 l -0.2273962,-0.02166 h -9e-7 -8e-7 l -8e-7,-10e-7 -0.2057406,-0.0758 h -2e-7 L 8.4281847,45.533942 h -2e-7 -2e-7 l -0.2057414,-0.01083 h -3e-7 -2e-7 l -0.1624256,0.06497 h -4e-7 l -0.086624,0.04331 h -9e-7 -9e-7 -9e-7 l -1e-6,1e-6 h -9e-7 -1e-6 l -1e-6,-1e-6 h -9e-7 -9e-7 l -0.075792,-0.03248 h -8e-7 -9e-7 l -7e-7,-10e-7 -7e-7,-1e-6 -0.1732538,-0.173257 -7e-7,-10e-7 -7e-7,-10e-7 -0.1407693,-0.227397 h -1e-7 L 7.4644506,45.003342 h -2e-7 -2e-7 l -0.1515955,0.04331 h -1e-6 -1e-6 -10e-7 -1e-6 -1e-6 -1e-6 l -1e-6,-1e-6 h -9e-7 l -0.1082757,-0.06496 -8e-7,-10e-7 h -8e-7 l -7e-7,-10e-7 -6e-7,-1e-6 -5e-7,-10e-7 -5e-7,-10e-7 h -4e-7 l -3e-7,-1e-6 -2e-7,-10e-7 -10e-8,-1e-6 -0.01083,-0.184081 v 0 l -0.021656,-0.151599 v -10e-7 h -2e-7 L 6.9879953,44.451091 h -6e-7 l -5e-7,-10e-7 -5e-7,-10e-7 -0.097456,-0.184082 -4e-7,-10e-7 -3e-7,-1e-6 -2e-7,-10e-7 -2e-7,-10e-7 v -1e-6 -0.249051 0 l -3e-7,-10e-7 -0.2273956,-0.02166 h -10e-7 l -1e-6,-1e-6 h -9e-7 -9e-7 l -0.140768,-0.0758 h -2e-7 -3e-7 l -0.1840853,-0.03249 h -5e-7 l -0.3356791,-0.02166 h -1e-6 l -1e-6,-1e-6 h -1e-6 -9e-7 l -9e-7,-10e-7 -0.1840826,-0.119112 h -6e-7 l -7e-7,-10e-7 h -6e-7 l -0.2490558,-0.270712 -7e-7,-10e-7 -6e-7,-1e-6 -5e-7,-10e-7 -0.238227,-0.541422 h -1e-7 -2e-7 l -0.4576177,0.499011 -6e-7,1e-6 h -6e-7 l -7e-7,10e-7 -0.1514377,0.09922 h -9e-7 l -1e-6,10e-7 -0.2297733,0.08877 h -4e-7 l -0.2976566,0.146217 h -4e-7 l -0.4282108,0.25066 h -2e-7 v 10e-7 0.501312 l -10e-8,1e-6 -10e-8,10e-7 -2e-7,10e-7 -4e-7,1e-6 -4e-7,10e-7 h -5e-7 l -6e-7,1e-6 -6e-7,10e-7 -7e-7,10e-7 h -8e-7 l -8e-7,1e-6 h -9e-7 -9e-7 l -0.083546,0.02611 h -4e-7 l -0.2454372,0.09922 h -2e-7 -3e-7 l -0.3237682,0.229771 h -2e-7 -1e-7 l -0.2297665,0.234993 h -4e-7 l -0.1827733,0.234993 h -10e-8 -10e-8 l -0.1409948,0.276771 h -1e-7 l -10e-8,10e-7 -0.073108,0.25588 -3e-7,1e-6 -4e-7,10e-7 -5e-7,10e-7 -0.099218,0.156659 h -5e-7 l -6e-7,10e-7 -7e-7,10e-7 h -8e-7 l -8e-7,1e-6 -0.1879925,0.109663 h -9e-7 l -9e-7,10e-7 h -9e-7 l -0.1932128,0.047 h -2e-7 -10e-8 l -0.067886,0.32899 z"
       id="path11" />
  </g>
  <g
     id="g12">
    <path
       fill-rule="evenodd"
       fill="#180a09"
       stroke="#555555"
       stroke-width="0"
       opacity="1"
       d="m 0.75755693,52.416599 h 1.3e-7 l 0.44180274,0.584736 h 2e-7 l 0.2598808,0.298863 6e-7,10e-7 5e-7,10e-7 h 5e-7 l 3e-7,1e-6 3e-7,10e-7 2e-7,1e-6 1e-7,10e-7 v 10e-7 l -1e-7,1e-6 -0.025989,0.2079 v 0 h 1e-7 l 0.1169469,0.15593 h 10e-8 2e-7 l 0.1819149,0.142936 5e-7,10e-7 0.1299433,0.07796 h 2e-7 3e-7 l 0.2338972,-0.05197 h 1.4e-6 l 0.3508405,-0.02599 h 7e-7 0.3118575 8e-7 9e-7 8e-7 l 0.4028181,0.103953 8e-7,10e-7 h 8e-7 8e-7 l 0.2338926,0.129939 1.2e-6,10e-7 0.2209007,0.168926 h 2e-7 2e-7 l 0.3248518,0.15593 0.2468876,0.116945 9e-7,1e-6 h 9e-7 l 8e-7,10e-7 7e-7,1e-6 h 6e-7 l 5e-7,10e-7 5e-7,10e-7 0.1039484,0.23389 4e-7,10e-7 2e-7,1e-6 2e-7,10e-7 0.038982,0.285868 v 0 h 1e-7 l 0.1039541,0.194915 1e-7,10e-7 h 2e-7 l 0.2209011,0.168922 h 5e-7 l 0.3768306,0.220901 3e-7,10e-7 0.2209003,0.142932 h 1e-6 l 9e-7,10e-7 0.1949096,0.207903 h 7e-7 l 6e-7,1e-6 5e-7,10e-7 4e-7,10e-7 0.07796,0.233892 2e-7,10e-7 0.1559331,0.337852 h 2e-7 2e-7 l 0.2079039,0.06497 h 1.3e-6 l 0.2208994,0.10395 h 9e-7 l 9e-7,1e-6 8e-7,10e-7 0.2728755,0.259886 h 2e-7 l 0.2079038,0.181915 h 9e-7 l 7e-7,1e-6 0.1559325,0.220901 h 4e-7 l 0.168922,0.181915 h 2e-7 2e-7 l 0.1299434,0.09096 h 3e-7 2e-7 0.5197614 1e-6 1e-6 9e-7 l 9e-7,10e-7 h 9e-7 8e-7 l 8e-7,1e-6 7e-7,10e-7 h 7e-7 l 6e-7,10e-7 5e-7,1e-6 4e-7,10e-7 0.1559269,0.363832 h 1e-7 1e-7 l 0.1949117,0.246887 h 1e-7 3e-7 l 0.2728763,0.103958 h 2e-7 2e-7 l 0.3768275,0.06497 h 9e-7 9e-7 l 8e-7,10e-7 h 9e-7 l 7e-7,10e-7 h 8e-7 l 6e-7,1e-6 0.1429305,0.155927 h 10e-8 3e-7 l 0.1429362,0.06497 h 2e-7 3e-7 l 0.2208991,0.05197 h 2e-7 2e-7 l 0.610725,-0.02599 h 4e-7 l 0.3378463,-0.03898 h 10e-7 0.37683 1e-6 l 0.246887,0.02598 1e-6,10e-7 h 10e-7 1e-6 l 0.324852,0.155929 v 0 h 10e-7 l 0.168923,0.01299 h 1e-6 v 0 l 0.40282,-0.07796 h 10e-7 l 0.337846,-0.116947 v 0 l 0.31186,-0.116951 h 10e-7 1e-6 l 0.129938,-0.02598 h 1e-6 10e-7 2e-6 10e-7 1e-6 l 0.220895,0.07796 h 10e-7 10e-7 l 1e-6,10e-7 0.337844,0.233892 10e-7,10e-7 v 0 l 10e-7,10e-7 v 1e-6 l 0.194913,0.272871 v 0 0 l 0.207907,0.194916 v 0 0 l 0.285871,0.194912 v 0 h 1e-6 l 0.272871,0.06497 h 1e-6 10e-7 l 1e-6,10e-7 v 0 l 10e-7,10e-7 1e-6,1e-6 h 10e-7 v 10e-7 l 10e-7,1e-6 v 10e-7 l 0.06497,0.181914 v 0 l 0.07797,0.272873 v 0 0 l 0.07796,0.142936 v 10e-7 0 l 0.298864,0.01299 1e-6,10e-7 0.233894,0.03899 10e-7,1e-6 h 1e-6 10e-7 l 0.19491,0.10395 v 0 h 1e-6 l 0.31186,0.09096 v 0 h 10e-7 l 0.350841,0.03899 v 0 0 l 0.246889,-0.07796 v 0 l 0.441803,-0.116951 v 0 l 0.402817,-0.10395 h 1e-6 10e-7 1e-6 1e-6 l 0.45479,0.07796 h 1e-6 l 10e-7,10e-7 h 1e-6 l 1e-6,10e-7 h 10e-7 l 1e-6,1e-6 0.584735,0.610719 10e-7,1e-6 0.129941,0.181918 v 0 0 l 0.324849,0.06497 h 10e-7 1e-6 l 1e-6,10e-7 h 10e-7 1e-6 v 10e-7 l 0.155929,0.142934 v 10e-7 h 1e-6 v 1e-6 l 0.12994,0.207904 v 0 0 l 0.181917,0.142936 v 0 0 l 0.298866,0.013 h 10e-7 l 0.298862,0.05197 h 1e-6 1e-6 l 1e-6,10e-7 h 10e-7 v 10e-7 h 1e-6 l 1e-6,1e-6 0.452645,0.484678 h 10e-7 v 0 L 19.738827,61.867 v 0 l 0.203579,-0.270305 v 0 -10e-7 l -0.0071,-0.210563 v 0 h -1e-6 l -0.12735,-0.240888 v -10e-7 l -1e-6,-1e-6 v -10e-7 -1e-6 0 -10e-7 l 0.0078,-0.135332 v -10e-7 -1e-6 l 1e-6,-10e-7 v -1e-6 l 1e-6,-10e-7 v -10e-7 l 0.09046,-0.112614 v -1e-6 h 1e-6 l 0.105471,-0.09754 h 1e-6 v 0 l -0.04483,-0.142967 v 0 0 l -0.10515,-0.06037 -1e-6,-10e-7 h -1e-6 l -10e-7,-10e-7 v -1e-6 l -1e-6,-10e-7 v -10e-7 l -1e-6,-1e-6 v -10e-7 -10e-7 -1e-6 -10e-7 l 0.02333,-0.383446 v -1e-6 -10e-7 -10e-7 l 10e-7,-1e-6 v -10e-7 l 1e-6,-10e-7 v -1e-6 h 1e-6 l 0.233514,-0.202562 v 0 0 l 0.120634,-0.157672 v -10e-7 0 l 0.0907,-0.232929 v 0 0 l -0.01463,-0.203064 v 0 h -1e-6 l -0.179987,-0.240988 v 0 l -10e-7,-10e-7 v -10e-7 -1e-6 l -1e-6,-10e-7 -0.02976,-0.157972 v -10e-7 0 -1e-6 -10e-7 -10e-7 l 10e-7,-1e-6 v -10e-7 l 1e-6,-10e-7 0.120675,-0.180229 10e-7,-10e-7 0.143235,-0.180187 h 1e-6 l 0.158263,-0.17264 v -1e-6 l 1e-6,-10e-7 h 1e-6 l 0.173149,-0.0974 h 1e-6 1e-6 l 0.240795,-0.08224 h 1e-6 l 0.263446,-0.127304 h 1e-6 v -10e-7 l 0.105562,-0.142661 v 0 -10e-7 l 0.0305,-0.21049 v -10e-7 0 l -0.0146,-0.218098 v -10e-7 -10e-7 -1e-6 -10e-7 l 10e-7,-1e-6 v -10e-7 l 0.0528,-0.0826 1e-6,-10e-7 10e-7,-1e-6 v 0 l 1e-6,-10e-7 1e-6,-10e-7 h 1e-6 10e-7 v -1e-6 h 1e-6 1e-6 10e-7 1e-6 1e-6 l 10e-7,1e-6 h 1e-6 l 1e-6,10e-7 h 1e-6 v 10e-7 h 10e-7 l 0.09003,0.09792 v 0 l 10e-7,10e-7 v 1e-6 l 0.0824,0.158079 v 10e-7 0 l 0.165147,0.143211 h 1e-6 v 0 l 0.172971,-0.0072 v 0 l 10e-7,-10e-7 0.143205,-0.165145 v 0 -10e-7 l 0.0063,-0.01103 0.121544,-0.214508 v -10e-7 l 0.09858,-0.210151 v 0 0 l 0.08337,-0.323177 h 1e-6 l -1e-6,-10e-7 -0.04171,-0.154155 v 0 0 l -0.106609,0.09177 h -1e-6 v 10e-7 l -0.172328,0.104437 -10e-7,10e-7 h -1e-6 l -0.250656,0.08355 h -1e-6 l -0.276769,0.06789 -1e-6,10e-7 -0.318545,0.03133 h -1e-6 l -0.214103,0.04177 v 0 l -0.322305,0.09606 h -1e-6 -1e-6 l -0.311857,0.03898 h -10e-7 -1e-6 -1e-6 -1e-6 -10e-7 l -1e-6,-10e-7 -0.194907,-0.09095 -1e-6,-1e-6 h -10e-7 v -10e-7 h -1e-6 l -0.220898,-0.2209 -1e-6,-10e-7 -0.246888,-0.272876 h -10e-7 v 0 l -0.246888,-0.142937 h -10e-7 v 0 l -0.337848,-0.013 h -1e-6 l -0.350843,-0.05197 v 0 l -0.220901,-0.02599 h -1e-6 l -0.337845,-0.07796 h -1e-6 v -1e-6 h -1e-6 l -0.220901,-0.129939 h -10e-7 l -1e-6,-10e-7 v 0 l -0.105275,-0.112796 h -1e-6 v 0 l -0.210553,-0.0376 h -10e-7 v 0 l -0.240633,0.02256 v 0 l -0.203029,0.01504 h -1e-6 -1e-6 -1e-6 -10e-7 -1e-6 l -1e-6,-1e-6 -10e-7,-10e-7 h -1e-6 l -1e-6,-1e-6 v -10e-7 l -0.07519,-0.105265 -1e-6,-1e-6 v -10e-7 -1e-6 l -1e-6,-10e-7 v -10e-7 0 -1e-6 -10e-7 -10e-7 l 1e-6,-1e-6 0.03759,-0.09775 v -10e-7 h 10e-7 v -1e-6 l 1e-6,-10e-7 0.09776,-0.09775 v 0 0 l -0.02256,-0.187992 v 0 h -10e-7 l -0.195514,-0.09776 v 0 0 l -0.473745,-0.0376 h -1e-6 l -0.233112,-0.05263 h -1e-6 -1e-6 v -1e-6 h -10e-7 l -0.19551,-0.127835 -10e-7,-10e-7 h -1e-6 l -1e-6,-1e-6 v -10e-7 l -1e-6,-10e-7 v -1e-6 -10e-7 l -0.0376,-0.120311 v -10e-7 -1e-6 L 16.07765,55.16384 v 0 -10e-7 l -0.172955,-0.233112 v 0 0 l -0.157915,-0.06768 v 0 l -0.203033,-0.0752 v 0 l -10e-7,-10e-7 -0.203034,-0.03008 h -10e-7 l -0.360948,-0.0075 v 0 h -0.300787 v 0 h -1e-6 -10e-7 l -1e-6,-1e-6 h -10e-7 l -10e-7,-10e-7 h -1e-6 v -1e-6 h -10e-7 l -0.127834,-0.15039 -1e-6,-1e-6 v -10e-7 l -10e-7,-10e-7 -0.09776,-0.203032 v 0 0 l -0.135354,0.0075 h -10e-7 l -0.353429,-0.0075 -0.39103,-0.0075 v 0 l -0.248153,-0.01504 v 0 l -0.240633,-0.01504 v 0 h -1e-6 l -0.25567,0.06016 v 0 l -0.29327,0.05264 h -10e-7 -10e-7 -1e-6 -10e-7 l -0.210549,-0.04512 h -10e-7 l -1e-6,-10e-7 v 0 l -10e-7,-1e-6 h -1e-6 l -10e-7,-10e-7 v -10e-7 L 12.204961,54.27654 v -10e-7 l -1e-6,-10e-7 v 0 l -0.210554,-0.481261 v -10e-7 l -0.142875,-0.285751 h -10e-7 v 0 l -0.157914,-0.187996 h -1e-6 v 0 l -0.240631,-0.08272 h -1e-6 l -10e-7,-1e-6 v 0 l -1e-6,-10e-7 -0.33087,-0.270708 -1e-6,-1e-6 -0.225592,-0.218073 v -10e-7 l -1e-6,-1e-6 v 0 l -0.193528,-0.31827 -1e-6,-10e-7 v 0 -1e-6 l -0.171522,-0.561347 v 0 l -0.09356,-0.311858 v -10e-7 -1e-6 0 l -0.0062,-0.416335 v 0 l 0.01559,-0.608127 v -10e-7 0 l -0.10915,-0.265079 v 0 0 L 9.9761204,50.006051 h -5e-7 L 9.6366867,49.818055 h -3e-7 L 9.3338054,49.67706 h -2e-7 L 9.0204846,49.546507 h -9e-7 l -8e-7,-10e-7 h -8e-7 l -7e-7,-10e-7 -7e-7,-1e-6 -6e-7,-10e-7 h -5e-7 l -0.052219,-0.09921 -4e-7,-1e-6 -4e-7,-10e-7 -0.067886,-0.261103 h -1e-7 v -1e-6 l -0.062666,-0.146216 -10e-8,-1e-6 h -2e-7 L 8.6706011,48.841534 h -1e-7 l -3e-7,-1e-6 -0.2141032,-0.104442 h -2e-7 -2e-7 l -0.193214,0.07833 h -2e-7 -3e-7 l -0.2245479,0.156662 h -2e-7 -1e-7 l -0.1827733,0.187992 h -2e-7 -1e-7 l -0.1201055,0.182773 -1e-7,1e-6 v 0 l 0.00522,0.276767 v 0 0.234997 10e-7 l -0.020889,0.266322 -10e-8,10e-7 -0.033252,0.216569 -2e-7,1e-6 -3e-7,10e-7 -3e-7,10e-7 -5e-7,1e-6 -0.144377,0.243638 -5e-7,1e-6 h -5e-7 l -5e-7,10e-7 -0.1714531,0.171445 -8e-7,10e-7 -7e-7,1e-6 h -9e-7 -9e-7 l -0.2165643,0.09024 -9e-7,10e-7 h -1e-6 -9e-7 -1e-6 -0.1985241 -1.2e-6 l -0.2165656,-0.02707 -9e-7,-10e-7 h -8e-7 -9e-7 l -8e-7,-10e-7 -0.2436392,-0.12633 h -2e-7 L 6.297276,50.581152 h -9e-7 L 6.0987513,50.445799 h -2e-7 -3e-7 l -0.3248517,-0.01805 h -1e-7 l -0.207546,-0.009 h -3e-7 -0.3338768 -1e-6 -1.1e-6 -1e-6 l -1e-6,-10e-7 h -9e-7 l -9e-7,-10e-7 -8e-7,-1e-6 h -7e-7 l -0.09023,-0.09926 -6e-7,-10e-7 -0.1082874,-0.144378 h -2e-7 l -0.207546,-0.243644 -1e-7,-10e-7 h -2e-7 L 4.645931,49.814157 h -2e-7 -2e-7 l -0.19852,-0.08121 -8e-7,-1e-6 -0.2075457,-0.108283 h -2e-7 -2e-7 l -0.1534025,-0.03609 h -10e-7 -9e-7 l -9e-7,-10e-7 -0.1353513,-0.08121 -8e-7,-10e-7 -8e-7,-1e-6 h -8e-7 l -6e-7,-10e-7 -6e-7,-10e-7 -4e-7,-1e-6 -4e-7,-10e-7 -2e-7,-1e-6 -2e-7,-10e-7 -0.027076,-0.270709 v 0 h -3e-7 -0.144375 -10e-7 -1e-6 -1e-6 l -10e-7,-1e-6 h -9e-7 l -9e-7,-10e-7 -0.063161,-0.04512 h -3e-7 L 3.5630801,49.074217 h -5e-7 l -0.1624255,-0.144382 -5e-7,-10e-7 -0.1895013,-0.12633 h -8e-7 l -6e-7,-10e-7 -7e-7,-10e-7 L 3.0397,48.604983 h -4e-7 l -4e-7,-10e-7 -0.1082832,-0.17145 -4e-7,-10e-7 -4e-7,-1e-6 -0.081218,-0.198518 -3e-7,-10e-7 -3e-7,-10e-7 -10e-8,-1e-6 -10e-8,-10e-7 v -0.207543 l 10e-8,-10e-7 0.018047,-0.153404 2e-7,-10e-7 0.054142,-0.24364 h 10e-8 l 0.027073,-0.162426 h 1e-7 v 0 -0.415092 0 h -3e-7 l -0.072188,-0.02707 h -8e-7 l -9e-7,-10e-7 -0.162425,-0.09926 h -2e-7 -10e-8 L 2.5433968,46.85438 h -8e-7 -7e-7 l -0.1714498,-0.108283 -7e-7,-10e-7 h -6e-7 l -7e-7,-1e-6 -0.1173034,-0.126329 h -7e-7 l -5e-7,-10e-7 -5e-7,-10e-7 -4e-7,-1e-6 -0.072189,-0.207544 h -1e-7 -2e-7 l -0.099262,0.02707 -2e-7,10e-7 h -2e-7 l -0.1443783,0.08121 -1e-7,1e-6 h -1e-7 l -0.058552,0.529658 -1e-7,10e-7 -0.089817,0.426624 -1.03288264,4.939865 z"
       id="path12" />
  </g>
  <g
     id="g13">
    <path
       fill-rule="evenodd"
       fill="#111105"
       stroke="#555555"
       stroke-width="0"
       opacity="1"
       d="M 1.1910172e-8,56.253769 H 8.671192e-8 L 0.14293662,56.6306 h 2e-7 l 0.18191889,0.363838 h 1e-7 1.5e-7 l 0.24688637,0.233894 6.5e-7,10e-7 h 5.8e-7 l 0.16892489,0.233893 5e-7,10e-7 h 4.2e-7 l 3.5e-7,1e-6 0.12994331,0.350844 h 8e-8 1.1e-7 l 0.23389418,0.337845 h 1e-7 l 0.4158134,0.610725 v 0 l 0.4288101,0.610726 h 1e-7 l 0.3248557,0.480785 h 1e-7 l 0.3378446,0.519768 h 2e-7 2e-7 l 0.1949114,0.02599 7e-7,1e-6 h 0.2338969 9e-7 9e-7 l 0.2858662,0.05197 1e-6,10e-7 h 9e-7 9e-7 l 8e-7,1e-6 h 8e-7 l 0.1819169,0.142931 5e-7,10e-7 0.1429325,0.129943 2e-7,10e-7 2e-7,-10e-7 0.2079076,-0.02598 h 8e-7 8e-7 l 0.389823,0.01299 h 2e-7 0.3508443 9e-7 1e-6 l 0.3508405,0.06497 h 10e-8 l 0.4547953,0.09096 h 1.1e-6 l 0.3638375,0.116947 h 3e-7 l 1.1434857,0.28587 h 2e-7 l 1.3513906,0.363838 h 2e-7 2e-7 l 0.6237179,0.06497 h 3e-7 l 0.2858695,0.01299 h 9e-7 9e-7 9e-7 l 9e-7,10e-7 0.6756953,0.298865 h 3e-7 3e-7 l 0.5847349,0.103955 h 10e-7 v 0 h 0.207907 10e-7 1e-6 10e-7 l 0.389822,0.103954 v 0 l 4.080159,0.844618 h 10e-7 l 10e-7,10e-7 h 1e-6 l 10e-7,10e-7 v 0 l 1e-6,1e-6 10e-7,10e-7 v 0 l 1e-6,10e-7 v 1e-6 l 10e-7,10e-7 v 10e-7 1e-6 l 0.03898,0.311855 v 10e-7 l 0.181918,0.896595 v 0 l 0.246889,1.143485 v 10e-7 -10e-7 l 0.11734,-0.194679 v 0 l 0.156476,-0.272558 v -1e-6 l 1e-6,-10e-7 h 10e-7 v -10e-7 l 0.1822,-0.142568 10e-7,-10e-7 h 1e-6 1e-6 l 10e-7,-1e-6 0.247018,-0.06448 h 1e-6 1e-6 l 0.402867,-0.02518 v 0 0 l 0.429016,-0.103096 v 0 0 l 0.364199,-0.181183 v 0 0 l 0.01328,-0.142906 v 0 h -1e-6 l -0.194672,-0.117338 h -10e-7 l -1e-6,-10e-7 v -10e-7 h -1e-6 l -10e-7,-1e-6 v -10e-7 -10e-7 l -1e-6,-10e-7 v -10e-7 -10e-7 l -0.01247,-0.259899 v -1e-6 -10e-7 l 1e-6,-10e-7 v -1e-6 -10e-7 l 0.117415,-0.233657 v -10e-7 l 1e-6,-1e-6 v 0 l 1e-6,-10e-7 0.195275,-0.181524 h 1e-6 l 1e-6,-10e-7 h 10e-7 v -10e-7 l 0.299097,-0.11634 h 1e-6 l 0.36407,-0.116218 h 10e-7 v -10e-7 l -0.01237,-0.311874 v -10e-7 -10e-7 -1e-6 -10e-7 l 10e-7,-10e-7 v 0 l 1e-6,-1e-6 v -10e-7 l 1e-6,-10e-7 h 10e-7 l 1e-6,-1e-6 h 1e-6 l 10e-7,-10e-7 0.234045,-0.0775 v 0 0 l 0.325193,-0.168266 h 1e-6 l 0.26019,-0.155411 v 0 h 10e-7 l 0.27124,-0.262642 v 0 l 0.218524,-0.225158 h 1e-6 l -1e-6,-10e-7 -0.452647,-0.484679 h -1e-6 v -10e-7 l -0.298866,-0.05197 v 0 l -0.298863,-0.013 -10e-7,-10e-7 h -1e-6 -1e-6 -10e-7 l -1e-6,-1e-6 -1e-6,-10e-7 -0.181913,-0.142933 -1e-6,-10e-7 v 0 l -1e-6,-1e-6 v -10e-7 l -0.129939,-0.207903 v 0 0 l -0.155932,-0.142937 v 0 0 l -0.324848,-0.06497 h -1e-6 l -10e-7,-10e-7 h -1e-6 v 0 l -1e-6,-1e-6 -1e-6,-10e-7 h -10e-7 v -1e-6 l -0.12994,-0.181916 v 0 L 17.000255,60.1611 h -10e-7 v 0 l -0.454795,-0.07796 v 0 h -1e-6 l -0.402818,0.10395 -0.441803,0.116951 v 0 l -0.246887,0.07796 -1e-6,10e-7 h -10e-7 -1e-6 -10e-7 l -0.350839,-0.03899 h -10e-7 v 0 l -0.31186,-0.09096 h -10e-7 -10e-7 l -0.19491,-0.10395 h -1e-6 v 0 l -0.233896,-0.03899 v -1e-6 l -0.298859,-0.01299 h -10e-7 -1e-6 l -10e-7,-10e-7 h -1e-6 v -10e-7 h -10e-7 l -10e-7,-1e-6 -1e-6,-10e-7 v 0 l -10e-7,-10e-7 -0.07796,-0.142931 v -10e-7 -10e-7 l -0.07797,-0.272872 v 0 l -0.06497,-0.181919 v 0 0 l -0.272875,-0.06497 h -10e-7 -10e-7 v -10e-7 h -1e-6 L 13.283923,59.23851 h -10e-7 l -1e-6,-10e-7 -0.207905,-0.194914 -10e-7,-1e-6 v -10e-7 l -0.194914,-0.272872 v 0 0 l -0.337846,-0.233894 v 0 h -1e-6 l -0.220899,-0.07796 v 0 0 l -0.129942,0.02599 v 0 0 l -0.311861,0.116951 v 0 l -0.337846,0.116947 h -1e-6 l -0.402819,0.07796 h -1e-6 -10e-7 -1e-6 l -0.168921,-0.01299 h -10e-7 -1e-6 v 0 l -10e-7,-10e-7 -0.324852,-0.155928 h -1e-6 v 0 l -0.246888,-0.02599 h -10e-7 -0.37683 -1e-6 l -0.3378461,0.03898 h -7e-7 l -0.6107237,0.02599 h -9e-7 -9e-7 -9e-7 l -0.2208973,-0.05197 h -10e-7 l -9e-7,-1e-6 -0.1429339,-0.06497 -9e-7,-1e-6 h -9e-7 l -7e-7,-10e-7 -8e-7,-10e-7 -0.1429313,-0.155928 h -2e-7 -2e-7 l -0.3768299,-0.06497 -9e-7,-10e-7 h -9e-7 L 7.9173397,58.224976 h -1e-6 l -9e-7,-10e-7 h -9e-7 l -8e-7,-10e-7 -7e-7,-1e-6 -0.1949094,-0.246884 -5e-7,-10e-7 h -5e-7 l -3e-7,-10e-7 -0.155929,-0.363837 h -1e-7 -2e-7 -0.5197584 -1e-6 -1e-6 l -1e-6,-10e-7 h -1e-6 -9e-7 l -8e-7,-10e-7 -0.1299404,-0.09096 -9e-7,-10e-7 -7e-7,-1e-6 -0.1689213,-0.181914 -8e-7,-10e-7 -0.1559328,-0.2209 -2e-7,-1e-6 h -2e-7 L 6.3840295,56.938555 h -3e-7 l -0.2728764,-0.259887 -2e-7,-1e-6 h -2e-7 l -0.2209009,-0.10395 h -7e-7 l -0.2079002,-0.06497 h -9e-7 -8e-7 l -8e-7,-10e-7 h -8e-7 l -7e-7,-10e-7 -6e-7,-1e-6 h -6e-7 l -5e-7,-10e-7 -4e-7,-10e-7 -0.1559313,-0.337848 -4e-7,-1e-6 -0.077961,-0.233894 h -1e-7 -2e-7 l -0.1949116,-0.207904 -2e-7,-10e-7 h -2e-7 l -0.2209012,-0.142932 -1e-7,-10e-7 -0.3768305,-0.220901 h -1e-6 l -0.2208993,-0.168921 -8e-7,-10e-7 -7e-7,-1e-6 h -7e-7 l -5e-7,-10e-7 -0.1039525,-0.194913 h -3e-7 l -4e-7,-10e-7 -2e-7,-1e-6 -2e-7,-10e-7 -0.038982,-0.285868 v 0 h -1e-7 L 4.1880187,54.482658 h -10e-8 -2e-7 L 3.9411276,54.365711 v 0 l -0.3248511,-0.155929 -9e-7,-10e-7 -8e-7,-10e-7 -0.2209004,-0.168925 h -6e-7 l -0.2338939,-0.12994 h -2e-7 -2e-7 L 2.7586594,53.806961 h -2e-7 -2e-7 -0.3118586 -4e-7 l -0.3508409,0.02599 h -7e-7 l -0.233894,0.05197 -9e-7,1e-6 h -9e-7 -10e-7 -9e-7 l -10e-7,-1e-6 h -9e-7 -8e-7 l -9e-7,-10e-7 -0.1299399,-0.07796 -10e-7,-10e-7 -0.1819138,-0.142935 -6e-7,-10e-7 -6e-7,-10e-7 h -6e-7 L 1.4332567,53.508096 h -6e-7 l -4e-7,-1e-6 -4e-7,-10e-7 -3e-7,-10e-7 -2e-7,-1e-6 -1e-7,-10e-7 v -10e-7 -1e-6 l 0.025989,-0.2079 1e-7,-1e-6 h -2e-7 l -0.077965,-0.09096 v 0 L 1.1993597,53.001319 h -4e-7 L 0.75755666,52.416583 h -1.4e-7 -9e-8 l -0.14683135,0.367733 h -7e-8 -3e-8 l -0.0519749,0.389822 -2.1e-7,10e-7 -3.2e-7,1e-6 -4.3e-7,10e-7 -5.4e-7,1e-6 -0.11694584,0.181921 h -1.2e-7 -10e-9 v 0.168922 l -10e-9,10e-7 -0.012989,0.311858 -8e-8,10e-7 -1.6e-7,1e-6 -0.0649717,0.285868 h -4e-8 -2e-8 l -0.0129928,0.298865 -8e-8,10e-7 -1.5e-7,1e-6 -2.2e-7,10e-7 -0.0649715,0.207903 -0.0649718,0.207909 h -7e-8 -3e-8 l -0.0129928,0.207904 -5e-8,10e-7 -0.0259894,0.207904 -1.8e-7,10e-7 -2.6e-7,1e-6 -0.0649716,0.194914 h -6e-8 l -0.10395422,0.350842 h -6e-8 -10e-9 z"
       id="path13" />
  </g>
  <g
     id="g14">
    <path
       fill-rule="evenodd"
       fill="#235a71"
       stroke="#555555"
       stroke-width="0"
       opacity="1"
       d="m 15.521303,65.709122 v 0 l 0.04719,0.535865 v 0 1e-6 l 0.125679,0.325111 v 0 l 4.242321,11.909088 v 0 0 l 0.337709,-0.448394 1e-6,-10e-7 0.166984,-0.17337 v 0 0 l 2.765686,-5.438995 v -10e-7 l 0.117311,-0.181686 h 1e-6 v 0 l 0.393009,-1.584495 v 0 -10e-7 l 0.195825,-0.454397 v -2e-6 h 1e-6 l 0.195432,-0.25949 v -10e-7 0 l 0.56167,-1.454222 v -10e-7 l 1e-6,-1e-6 0.299726,-0.428199 v 0 0 l 3.824789,-10.586174 v 0 l 0.809366,-1.856537 v 0 l 0.352695,-0.921874 1e-6,-1e-6 v -10e-7 l 0.273761,-0.441252 v -1e-6 l 0.430348,-0.765792 v 0 l 0.117362,-0.207667 v -10e-7 l 1e-6,-1e-6 v 0 l 10e-7,-10e-7 0.286364,-0.246313 10e-7,-10e-7 0.611533,-0.401588 h 1e-6 l 0.858497,-0.440079 v 0 0 l 1.848529,-1.672531 h 1e-6 l 0.273269,-0.194362 v -1e-6 h 10e-7 l 0.221365,-0.23345 1e-6,-10e-7 10e-7,-1e-6 h 1e-6 l 0.741472,-0.401328 v 0 l 1e-6,-10e-7 0.390579,-0.376045 0.403598,-0.389014 10e-7,-10e-7 v 0 l 1.275249,-0.907028 v 0 l 1.262047,-0.803104 v -1e-6 l 0.689525,-0.414424 v 0 l 1e-6,-10e-7 1.041484,-0.972472 v -10e-7 l 0.755405,-0.86909 10e-7,-1e-6 0.416594,-0.388987 1e-6,-10e-7 h 10e-7 v -10e-7 l 0.481275,-0.245916 10e-7,-1e-6 h 10e-7 1e-6 v 0 l 0.402895,-0.03817 v 0 h 10e-7 l 0.468699,-0.453853 10e-7,-10e-7 h 10e-7 l 0.418978,-0.282432 h 10e-7 l 0.796459,-0.606526 v 0 l 1.015201,-0.82439 v 0 l 0.968231,-0.730926 10e-7,-1e-6 1.421054,-1.041873 v 0 l 0.874645,-0.715519 h 10e-7 l 0.999481,-0.762051 v 0 l 1.06018,-0.755356 v 0 l 1.015106,-0.77761 1e-6,-1e-6 0.377559,-0.363079 v 0 0 l 0.02677,-0.38977 v 0 l 3.39e-4,-0.168922 v -10e-7 0 l -0.116531,-0.208141 v 0 0 l -0.181553,-0.182281 v 0 0 l -0.337688,-0.07864 v 0 h -1e-6 l -0.259931,0.02547 v 1e-6 l -1e-6,-1e-6 h -10e-7 -10e-7 -1e-6 l -0.103869,-0.03919 -1e-6,-10e-7 v 0 l -10e-7,-1e-6 h -10e-7 l -1e-6,-10e-7 v -10e-7 l -10e-7,-1e-6 -0.220087,-0.403259 v -10e-7 0 l -0.194652,-0.130329 h -1e-6 v 0 L 50.49359,35.289525 h -10e-7 v 0 l -0.54557,-0.09205 v 0 l -0.350815,-0.0137 v 0 l -0.376827,-7.6e-4 v 0 1e-6 l -0.207977,0.03856 h -10e-7 -1e-6 -10e-7 -10e-7 l -1e-6,-10e-7 h -10e-7 v 0 l -10e-7,-1e-6 -1e-6,-10e-7 h -10e-7 v -10e-7 l -10e-7,-1e-6 -1e-6,-10e-7 v 0 l -0.06465,-0.15605 v 0 -10e-7 l -10e-7,-1e-6 v -10e-7 -10e-7 -1e-6 l 0.03946,-0.233815 v 0 0 l -0.06487,-0.0521 v 0 h -10e-7 l -0.325397,0.272224 v 0 l -0.104136,0.09075 v 10e-7 l -1e-6,10e-7 h -10e-7 -1e-6 l -10e-7,1e-6 -0.168992,0.03864 h -10e-7 -10e-7 -1e-6 v 0 h -10e-7 -10e-7 l -1e-6,-10e-7 h -10e-7 l -10e-7,-10e-7 -0.181653,-0.130302 h -10e-7 l -10e-7,-1e-6 v -10e-7 h -1e-6 l -10e-7,-10e-7 v -1e-6 l -0.06463,-0.169047 -10e-7,-10e-7 v -10e-7 -1e-6 -10e-7 -1e-6 l 0.03951,-0.259801 v -10e-7 l 0.05244,-0.23379 v -10e-7 0 l 0.01364,-0.324825 v 0 0 l -0.0645,-0.234024 v 0 0 L 47.872071,33.647 v 0 0 l -0.324668,-0.09161 h -1e-6 v 0 L 47.196638,33.5157 h -10e-7 l -0.54578,0.0119 v 0 l -0.181908,-3.66e-4 h -1e-6 -10e-7 l -10e-7,-10e-7 v 0 h -1e-6 l -10e-7,-1e-6 -10e-7,-10e-7 h -1e-6 v -10e-7 l -10e-7,-1e-6 -10e-7,-10e-7 v -10e-7 -1e-6 l -0.116057,-0.442028 v 0 0 l -0.129367,-0.286129 v 0 h -10e-7 l -0.259254,-0.312381 v -10e-7 0 L 45.6918,32.278233 v 0 0 l -0.324539,-0.156581 v -10e-7 l -0.84404,-0.287567 v 0 l -1.207748,-0.353267 v 0 l -0.766182,-0.235434 h -10e-7 l -0.129836,-0.05224 v 0 h -1e-6 l -0.389847,0.01221 h -1e-6 -10e-7 -10e-7 -1e-6 l -10e-7,-10e-7 v 0 l -0.207666,-0.117363 -1e-6,-1e-6 -0.441459,-0.169811 v 0 0 l -0.285923,0.02541 v 0 0 l -0.247177,0.142438 v 1e-6 0 l -0.299491,0.311257 -1e-6,10e-7 v 0 l -10e-7,1e-6 -0.286179,0.155353 -10e-7,10e-7 h -10e-7 -1e-6 -10e-7 -10e-7 l -0.44177,-0.01388 v 0 0 l -0.337951,0.0513 v 0 h -10e-7 l -0.24707,0.09046 v 1e-6 0 l -0.09122,0.129758 h -1e-6 v 1e-6 l 0.02568,0.155982 v 0 l 0.02562,0.181957 v 10e-7 1e-6 10e-7 10e-7 l -1e-6,1e-6 v 10e-7 l -10e-7,10e-7 v 0 l -10e-7,1e-6 v 10e-7 l -1e-6,1e-6 h -10e-7 l -1e-6,10e-7 h -10e-7 -10e-7 -1e-6 -10e-7 l -10e-7,10e-7 -0.437412,-0.02037 h -10e-7 -1e-6 l -10e-7,-10e-7 h -10e-7 l -1e-6,-10e-7 h -10e-7 v -1e-6 h -10e-7 l -1e-6,-10e-7 v -1e-6 l -10e-7,-10e-7 v -10e-7 l -0.258356,-0.758504 v 0 l -0.172405,-0.422657 v 0 0 l -0.194283,-0.314415 v 0 0 l -0.162208,-0.108612 v 0 0 l -0.335594,-0.04399 h -10e-7 l -0.313891,-0.0656 -1e-6,-1e-6 h -10e-7 l -0.238028,-0.09793 v 0 l -0.248859,-0.09796 h -10e-7 l -0.108173,-0.05436 v -1e-6 1e-6 l -0.08667,0.02148 v 0 0 l -0.141715,0.476138 v 10e-7 1e-6 l -10e-7,1e-6 v 0 l -10e-7,1e-6 -1e-6,10e-7 v 0 l -10e-7,1e-6 h -10e-7 l -1e-6,1e-6 h -10e-7 -10e-7 -1e-6 -10e-7 -10e-7 -1e-6 l -10e-7,-1e-6 h -1e-6 v 0 l -10e-7,-1e-6 -10e-7,-10e-7 h -1e-6 v -1e-6 l -10e-7,-1e-6 v -1e-6 l -10e-7,-10e-7 -0.226083,-0.650132 v 0 0 l -0.04344,0.06488 v 0 0 l -0.119892,0.389584 v 0 l -0.0546,0.227287 v 1e-6 10e-7 l -1e-6,1e-6 v 1e-6 l -0.06514,0.08649 h -10e-7 v 1e-6 l -10e-7,1e-6 h -1e-6 l -10e-7,1e-6 v 0 h -10e-7 l -1e-6,10e-7 h -10e-7 l -0.790603,0.06338 v 0 0 l -0.140854,0.04303 v 0 0 l -0.08682,0.09728 h -10e-7 l -0.09772,0.129745 v 0 0 l -0.01107,0.119091 v 0 0 l 0.02142,0.119155 v 1e-6 10e-7 l -1.52e-4,0.07579 v 1e-6 10e-7 l -10e-7,1e-6 v 1e-6 0 l -1e-6,10e-7 v 1e-6 l -10e-7,1e-6 h -10e-7 l -1e-6,1e-6 v 10e-7 h -10e-7 -10e-7 l -1e-6,1e-6 h -10e-7 -10e-7 -1e-6 -10e-7 l -1e-6,-1e-6 -0.151494,-0.04361 h -10e-7 -10e-7 l -1e-6,-1e-6 -0.335245,-0.217242 h -10e-7 v 0 l -0.205566,-0.08704 v 0 0 l -0.249012,-0.02216 v 0 0 l -0.130047,0.05388 v 0 0 l 0.01054,0.14079 v 1e-6 l -1.3e-4,0.06495 v 1e-6 0 1e-6 10e-7 l -10e-7,1e-6 v 1e-6 l -10e-7,10e-7 -1e-6,1e-6 v 0 l -10e-7,1e-6 h -10e-7 l -1e-6,10e-7 h -10e-7 -10e-7 v 0 l -1e-6,1e-6 h -10e-7 l -1e-6,-1e-6 h -10e-7 -10e-7 l -1e-6,-10e-7 h -10e-7 l -0.173022,-0.108623 h -1e-6 l -10e-7,-1e-6 -0.118892,-0.108522 v 0 L 33.08641,30.654615 v 0 0 l -0.250122,0.53009 v 0 l -0.108719,0.21635 v 1e-6 l -0.08704,0.205565 v 1e-6 10e-7 l -0.141205,0.216284 v 1e-6 L 32.3581,32.050023 v 0 0 l -0.06536,0.194778 v 10e-7 l -0.04366,0.17316 v 10e-7 0 l -10e-7,10e-7 v 1e-6 l -1e-6,10e-7 -10e-7,10e-7 h -10e-7 v 1e-6 h -1e-6 l -10e-7,10e-7 h -10e-7 -1e-6 -10e-7 -10e-7 l -0.303135,-0.02227 h -10e-7 -1e-6 -1e-6 l -10e-7,-10e-7 h -1e-6 l -1e-6,-1e-6 v 0 l -1e-6,-10e-7 -10e-7,-10e-7 v -1e-6 l -1e-6,-10e-7 v 0 -1e-6 -10e-7 l -1e-6,-10e-7 v -1e-6 l 1e-6,-10e-7 0.02201,-0.173199 v -1e-6 l 10e-7,-10e-7 0.05446,-0.158705 v 0 -1e-6 l -0.0087,-0.171468 v 0 0 L 31.39371,30.573605 v -1e-6 1e-6 l -0.180944,0.234252 h -10e-7 v 1e-6 l -0.172088,0.324481 -10e-7,10e-7 -1e-6,1e-6 v 1e-6 h -1e-6 l -10e-7,10e-7 -1e-6,1e-6 v 0 h -1e-6 l -1e-6,1e-6 h -10e-7 -1e-6 -1e-6 -10e-7 l -1e-6,-1e-6 h -1e-6 -1e-6 l -10e-7,-1e-6 h -1e-6 v -10e-7 l -1e-6,-1e-6 -10e-7,-1e-6 v 0 l -1e-6,-10e-7 v -1e-6 -1e-6 l -0.06255,-0.306905 v 0 -1e-6 l -0.107832,-0.225806 v -1e-6 0 l -0.261305,-0.190023 v 0 l -0.171251,-0.09961 v -1e-6 0 l -0.252553,-0.05465 h -1e-6 l -10e-7,-1e-6 h -1e-6 l -1e-6,-1e-6 v -10e-7 h -1e-6 l -0.144047,-0.162714 -1e-6,-1e-6 v -10e-7 l -1e-6,-1e-6 v 0 l -0.350074,-0.921113 v -10e-7 -1e-6 -1e-6 -10e-7 -1e-6 -1e-6 -10e-7 l 1e-6,-1e-6 v -1e-6 l 10e-7,-1e-6 v 0 l 1e-6,-10e-7 1e-6,-1e-6 0.352462,-0.27 v 0 l 0.108465,-0.09002 v 0 h 1e-6 l 0.04534,-0.108194 v 0 0 l 0.01828,-0.117271 v -1e-6 0 l -0.01788,-0.08125 v 0 0 l -0.728184,-1.364044 v 0 0 l -0.03631,0.108211 v 10e-7 0 l -0.03669,0.29771 v 0 l -0.07378,0.793939 v 1e-6 l -0.07424,1.019529 v 0 l -0.05563,0.739833 v 1e-6 0 l 0.178483,0.242496 1e-6,1e-6 0.08241,0.150559 1e-6,10e-7 0.08978,0.225771 v 1e-6 2e-6 l 0.02964,0.218131 v 1e-6 10e-7 1e-6 l -0.06075,0.293145 v 1e-6 1e-6 l -0.06799,0.157777 v 0 0 l -0.03052,0.218003 -10e-7,1e-6 v 1e-6 10e-7 l -1e-6,1e-6 v 1e-6 l -1e-6,10e-7 v 0 l -1e-6,1e-6 h -10e-7 l -1e-6,1e-6 h -1e-6 v 1e-6 h -10e-7 -1e-6 -1e-6 l -0.120304,-2.4e-4 h -10e-7 l -2e-6,-1e-6 h -10e-7 -1e-6 v -10e-7 l -0.165237,-0.09809 -1e-6,-10e-7 -0.307916,-0.196132 v 0 l -0.105154,-0.06037 v 0 0 l -0.09774,-0.0077 v 0 0 l -0.08287,0.07503 v 0 1e-6 l -0.02759,0.260129 v 1e-6 l -5.61e-4,0.279733 v 0 l 0.0088,0.117325 v 0 0 l 0.08988,0.180656 v 1e-6 l 0.06282,0.171577 v 0 l 0.09884,0.207744 v 0 l 0.08984,0.1987 v 0 10e-7 l 0.08996,0.135533 10e-7,10e-7 v 1e-6 l 1e-6,10e-7 v 10e-7 1e-6 10e-7 l -2.73e-4,0.135353 v 0 10e-7 l 0.09901,0.126529 v 0 0 l 0.162208,0.108612 h 1e-6 l 0.171197,0.126675 0.19823,0.144778 v 10e-7 h 1e-6 l 1e-6,1e-6 v 10e-7 l 0.134936,0.207815 h 1e-6 l 0.116873,0.216799 1e-6,1e-6 v 10e-7 1e-6 10e-7 l 0.01774,0.15344 v 0 l 0.01768,0.180508 v 0 h 1e-6 l 0.09007,0.08139 v 0 0 l 0.216442,0.0636 v 10e-7 l 0.450872,0.136248 1e-6,10e-7 h 1e-6 l 1e-6,1e-6 h 10e-7 l 1e-6,10e-7 v 10e-7 h 1e-6 v 1e-6 l 10e-7,10e-7 v 1e-6 10e-7 10e-7 l 1e-6,1e-6 -1e-6,10e-7 v 10e-7 1e-6 10e-7 l -10e-7,10e-7 v 1e-6 h -1e-6 l -1e-6,10e-7 v 10e-7 h -10e-7 l -1e-6,1e-6 h -1e-6 l -1e-6,10e-7 h -10e-7 l -0.252712,0.0446 h -10e-7 l -0.108337,0.02685 v 0 0 l -0.126531,0.09901 h -10e-7 v 0 l -0.08143,0.108119 v 10e-7 0 l 0.01757,0.234633 v 10e-7 1e-6 l -10e-7,10e-7 v 0 1e-6 l -1e-6,10e-7 v 10e-7 l -1e-6,1e-6 v 10e-7 h -1e-6 l -10e-7,10e-7 h -1e-6 l -1e-6,1e-6 v 0 h -10e-7 -1e-6 -1e-6 -1e-6 -10e-7 -1e-6 -1e-6 l -10e-7,-1e-6 h -1e-6 l -1.324686,-0.886975 v 0 L 28.43909,33.996675 h -1e-6 l -0.207255,-0.144794 -10e-7,-10e-7 -0.234198,-0.208014 -10e-7,-1e-6 -1e-6,-10e-7 -0.252009,-0.325362 v 0 h -1e-6 l -0.198192,-0.162823 v 0 0 l -0.243515,-0.06366 v 0 l -0.992296,-0.155395 -0.360838,-0.05487 v 0 0 l -0.352034,0.05343 v 0 0 l -0.153673,0.135047 v 0 10e-7 l -0.135719,0.180202 v 0 0 l -0.03642,0.162335 v 1e-6 l -1e-6,10e-7 v 10e-7 l -1e-6,1e-6 v 0 l -1e-6,10e-7 -10e-7,1e-6 v 0 l -1e-6,10e-7 h -1e-6 -10e-7 l -1e-6,10e-7 h -1e-6 -1e-6 -10e-7 -1e-6 l -1e-6,-10e-7 h -10e-7 l -1e-6,-10e-7 h -1e-6 v -1e-6 h -10e-7 l -0.396176,-0.424898 v 0 L 24.69656,32.843135 v 0 0 l -0.216335,-0.117741 h -1e-6 v 0 L 24.2908,32.688914 v 0 0 l -0.234705,0.04465 v 0 0 l -0.216822,0.125897 v 0 0 l -0.171833,0.189151 v 1e-6 l -0.04523,0.06307 -10e-7,10e-7 v 0 l -1e-6,1e-6 h -1e-6 l -1e-6,10e-7 h -10e-7 l -1e-6,1e-6 v 0 h -1e-6 -10e-7 -1e-6 -1e-6 l -1e-6,-1e-6 h -10e-7 -1e-6 l -1e-6,-10e-7 -10e-7,-1e-6 v 0 l -0.702354,-0.741347 v 0 0 l 0.04363,0.740031 v 2e-6 l -0.01863,0.288721 v 1e-6 10e-7 l -0.115591,0.367285 v 10e-7 l -0.153516,0.32117 h -10e-7 v 10e-7 l -0.175973,0.256567 -10e-7,1e-6 v 10e-7 l -0.225994,0.200072 v 1e-6 l -0.232248,0.193797 v 1e-6 0 l -0.201195,0.331718 v 0 0 l -0.144857,0.363163 v 0 l -0.09461,0.305164 v 10e-7 l -0.108807,0.259662 v 0 l -0.08695,0.162251 -10e-7,1e-6 v 10e-7 l -1e-6,10e-7 h -1e-6 l -1e-6,1e-6 v 0 l -10e-7,10e-7 -0.18423,0.07543 h -1e-6 -1e-6 -1e-6 -10e-7 l -0.173253,-3.47e-4 v 0 h -10e-7 l -0.120309,0.595322 v 0 0 l 0.03203,0.227462 v 1e-6 0 l -0.01161,0.3898 v 10e-7 l 0.02096,0.346553 v 0 10e-7 l 0.04301,0.151683 h 10e-7 v 0 l 0.08648,0.07597 v 0 0 l 0.151571,0.01113 h 1e-6 10e-7 1e-6 l 1e-6,10e-7 v 0 l 10e-7,10e-7 h 1e-6 l 1e-6,1e-6 0.108021,0.130153 10e-7,10e-7 v 10e-7 l 0.05392,0.108387 1e-6,1e-6 v 10e-7 10e-7 l 10e-7,1e-6 v 10e-7 l -10e-7,10e-7 v 1e-6 l -0.04366,0.173162 -10e-7,10e-7 v 1e-6 10e-7 h -1e-6 l -1e-6,1e-6 -0.151919,0.162122 -1e-6,10e-7 h -10e-7 v 1e-6 l -0.184298,0.107911 v 10e-7 h -1e-6 -10e-7 -1e-6 l -1e-6,10e-7 h -10e-7 l -1e-6,-10e-7 -0.248983,-0.03299 h -1e-6 v 0 l -0.151727,0.06467 v 0 h -1e-6 L 20.5008,38.919387 v 0 l -0.13031,0.183822 h -1e-6 v 10e-7 l -0.0761,0.151443 v 0 0 l 0.01053,0.151619 v 0 0 l 2.294773,2.072846 10e-7,10e-7 h 1e-6 v 1e-6 l 1e-6,10e-7 v 10e-7 1e-6 l 1e-6,10e-7 v 1e-6 10e-7 l -0.0086,0.548918 v 10e-7 0 l 0.05214,0.24826 v 0 0 l 0.112524,0.135582 v 0 l 0.09005,0.09041 v 1e-6 l 1e-6,10e-7 0.08247,0.120482 v 10e-7 l 0.08239,0.165599 v 0 l 0.06739,0.143009 v 10e-7 l 0.08243,0.143042 v 10e-7 h 1e-6 v 1e-6 l 0.04477,0.173041 v 1e-6 l 0.02972,0.180531 v 1e-6 10e-7 10e-7 1e-6 l -10e-7,10e-7 -0.05295,0.157807 -10e-7,1e-6 v 10e-7 l -0.08301,0.142705 v 10e-7 l -1e-6,1e-6 v 10e-7 l -0.113021,0.11257 v 0 l -0.105473,0.09755 v 0 0 l -0.02332,0.375938 v 0 10e-7 l 0.05975,0.203155 v 0 l 0.08232,0.195678 v 10e-7 l 0.03731,0.142952 v 0 l 0.04477,0.173042 v 0 0 l 0.06739,0.143012 10e-7,10e-7 0.0523,0.165525 v 10e-7 l 10e-7,1e-6 v 10e-7 10e-7 l -10e-7,1e-6 v 0 10e-7 10e-7 l -1e-6,1e-6 -1e-6,10e-7 v 10e-7 h -1e-6 l -10e-7,1e-6 v 0 l -1e-6,10e-7 h -1e-6 -10e-7 l -1e-6,10e-7 h -1e-6 -1e-6 l -0.248108,-0.01554 h -1e-6 v 0 l -0.353832,0.202324 v 0 10e-7 l -0.01571,0.330836 v 10e-7 l -6.64e-4,0.330867 v 0 l 0.007,0.263205 v 1e-6 l -1e-6,10e-7 v 1e-6 10e-7 l -0.07557,0.187841 v 0 l -0.09818,0.210353 v 1e-6 l -0.128257,0.210296 -1e-6,10e-7 h -10e-7 l -0.09795,0.09756 v 0 10e-7 l -1.2e-4,0.06016 v 0 0 l 0.247681,0.233611 10e-7,1e-6 h 1e-6 v 10e-7 l 1e-6,10e-7 0.05988,0.135472 v 0 2e-6 l 10e-7,1e-6 v 10e-7 l -0.0035,1.72202 v 0 l -1e-6,10e-7 -0.03044,0.18041 v 10e-7 l -1e-6,1e-6 v 10e-7 l -10e-7,10e-7 -0.07542,0.112641 -1e-6,10e-7 -0.113054,0.127605 v 10e-7 l -0.09794,0.09004 -1e-6,10e-7 -0.11296,0.08249 h -1e-6 v 1e-6 l -0.0829,0.09007 v 0 0 l -0.01524,0.09773 v 0 0 l -3.16e-4,0.157913 v 0 0 l 0.01486,0.09027 v 10e-7 10e-7 l -0.0079,0.172938 v 10e-7 l -0.03802,0.210475 v 10e-7 l -0.05299,0.172851 v 0 l -0.105865,0.293056 -10e-7,1e-6 -0.05314,0.248043 v 0 l -0.06827,0.293136 -0.05311,0.233006 v 0 l -0.03038,0.150337 v 0 l -0.0077,0.07518 v 10e-7 10e-7 1e-6 l -10e-7,10e-7 -0.105683,0.202821 v 10e-7 l -0.06044,0.142753 v 0 0 l 0.02973,0.173012 v 0 0 l 0.0674,0.13549 v 0 l 1e-6,10e-7 0.09008,0.07538 v 0 h 1e-6 l 0.150348,0.02287 v 0 0 l 0.09782,-0.02988 h 10e-7 l 0.09782,-0.0374 h 10e-7 l 1e-6,-1e-6 h 1e-6 1e-6 10e-7 l 1e-6,1e-6 h 1e-6 10e-7 l 1e-6,10e-7 h 1e-6 l 1e-6,10e-7 10e-7,1e-6 v 0 l 1e-6,10e-7 v 1e-6 l 0.02994,0.06772 v 1e-6 10e-7 h 1e-6 v 10e-7 1e-6 10e-7 l -1e-6,10e-7 v 1e-6 10e-7 l -1e-6,1e-6 v 10e-7 h -10e-7 l -1e-6,10e-7 -0.09793,0.09004 v 0 10e-7 l -0.08294,0.112632 -0.120647,0.165192 v 0 0 l -0.04544,0.157821 v 0 1e-6 l -4.39e-4,0.218074 v 0 l 0.01454,0.24818 v 10e-7 l 0.04464,0.240722 h 1e-6 l 0.04459,0.263283 v 0 l 0.04473,0.195601 v 10e-7 2e-6 l -3.78e-4,0.187994 -2.12e-4,0.105274 v 10e-7 h 10e-7 l 0.08271,1.64e-4 h 10e-7 1e-6 1e-6 1e-6 l 10e-7,10e-7 v 10e-7 h 1e-6 l 0.07505,0.06783 h 10e-7 l 1e-6,1e-6 v 10e-7 l 0.127398,0.218328 1e-6,10e-7 v 1e-6 l 0.05984,0.158034 v 10e-7 l 0.04474,0.188074 1e-6,10e-7 v 1e-6 10e-7 10e-7 l -1e-6,1e-6 v 10e-7 10e-7 l -10e-7,1e-6 v 10e-7 l -0.120614,0.150148 h -1e-6 l -1e-6,10e-7 v 1e-6 h -1e-6 l -10e-7,10e-7 h -1e-6 l -0.195616,0.05224 h -10e-7 l -0.105306,0.01483 v 0 h -10e-7 l -0.05284,0.09765 v 0 10e-7 l 0.120164,0.07544 1e-6,10e-7 h 10e-7 l 0.120101,0.105513 10e-7,10e-7 1e-6,1e-6 v 0 l 1e-6,10e-7 0.05244,0.09786 v 1e-6 l 10e-7,10e-7 v 1e-6 10e-7 10e-7 1e-6 l -0.03058,0.248089 v 0 10e-7 l 0.02215,0.203078 v 1e-6 0 l 0.157837,0.03792 h 1e-6 v 10e-7 h 1e-6 l 10e-7,10e-7 0.157697,0.105587 1e-6,1e-6 v 10e-7 h 10e-7 l 1e-6,10e-7 v 1e-6 l 1e-6,10e-7 v 10e-7 l 0.06718,0.248277 v 1e-6 10e-7 10e-7 1e-6 10e-7 l -0.08336,0.323186 v 10e-7 0 l -0.10573,0.225379 v 10e-7 l -0.120738,0.210307 -10e-7,1e-6 h -1e-6 L 21.88979,57.91593 v 10e-7 h -1e-6 l -1e-6,10e-7 -1e-6,1e-6 h -10e-7 -1e-6 -1e-6 l -10e-7,10e-7 -0.172961,0.0072 h -1e-6 -1e-6 -10e-7 l -1e-6,-10e-7 h -1e-6 l -10e-7,-10e-7 h -1e-6 v -1e-6 l -0.165144,-0.143203 v -10e-7 l -10e-7,-10e-7 h -1e-6 v -1e-6 l -0.0824,-0.158079 v -10e-7 h -1e-6 l -0.09004,-0.09794 v 0 0 l -0.0528,0.08261 h -1e-6 v 0 l 0.0146,0.2181 v 10e-7 1e-6 l -0.0305,0.210488 v 10e-7 1e-6 l -1e-6,10e-7 v 10e-7 l -1e-6,1e-6 -0.105561,0.142658 h -1e-6 v 10e-7 l -1e-6,1e-6 h -10e-7 l -1e-6,10e-7 -0.263444,0.127306 -1e-6,1e-6 -0.240796,0.08223 v 0 0 l -0.173151,0.09741 v 0 0 l -0.158262,0.172638 h -1e-6 l -0.143237,0.180187 -1e-6,1e-6 -0.120677,0.180232 h -1e-6 v 1e-6 l 0.02976,0.157973 v 10e-7 0 l 0.08999,0.120495 0.08999,0.120496 v 10e-7 h 1e-6 v 1e-6 10e-7 l 1e-6,1e-6 v 10e-7 l 0.01463,0.203059 v 1e-6 10e-7 l -1e-6,10e-7 v 0 1e-6 l -0.0907,0.23293 v 1e-6 10e-7 h -10e-7 l -0.120631,0.157667 v 10e-7 l -1e-6,10e-7 -0.135581,0.112525 v 0 l -0.09794,0.09004 v 0 1e-6 l -0.02333,0.38346 v 0 l 1e-6,10e-7 0.105152,0.06036 10e-7,10e-7 h 1e-6 v 10e-7 l 1e-6,1e-6 v 0 l 1e-6,10e-7 v 10e-7 l 10e-7,1e-6 0.04483,0.142957 v 1e-6 10e-7 1e-6 10e-7 10e-7 1e-6 l -1e-6,10e-7 v 10e-7 l -10e-7,1e-6 v 10e-7 l -1e-6,10e-7 -0.105468,0.09754 v 0 0 l -0.09046,0.112613 v 10e-7 0 l -0.0078,0.135341 v 0 0 l 0.127352,0.240885 1e-6,10e-7 v 10e-7 0 l 10e-7,1e-6 v 10e-7 l 0.0071,0.210562 v 10e-7 10e-7 l -1e-6,1e-6 v 10e-7 10e-7 h -1e-6 v 1e-6 l -0.203575,0.270299 -1e-6,10e-7 -0.180867,0.195151 v 10e-7 l -0.218523,0.225154 v 0 l -0.271238,0.262645 -1e-6,10e-7 -10e-7,10e-7 -0.260195,0.155406 h -1e-6 l -0.325188,0.168274 h -1e-6 -10e-7 l -0.234051,0.07749 h -1e-6 v 0 l 0.01237,0.311874 v 10e-7 10e-7 1e-6 10e-7 l -1e-6,1e-6 v 10e-7 l -10e-7,10e-7 v 0 l -1e-6,1e-6 -1e-6,10e-7 h -1e-6 l -10e-7,10e-7 h -1e-6 l -0.364061,0.116216 h -1e-6 l -0.2991,0.116345 v 0 0 l -0.195278,0.181522 v 0 h -1e-6 l -0.117416,0.233662 v 0 0 l 0.01247,0.259906 v 10e-7 h 1e-6 l 0.194671,0.117336 1e-6,10e-7 1e-6,10e-7 h 10e-7 v 10e-7 l 1e-6,10e-7 v 10e-7 l 1e-6,1e-6 v 10e-7 10e-7 10e-7 10e-7 l -0.01328,0.142894 v 10e-7 10e-7 10e-7 l -1e-6,10e-7 v 10e-7 l -10e-7,1e-6 -1e-6,10e-7 v 0 l -1e-6,10e-7 h -10e-7 l -0.364195,0.181188 h -10e-7 l -1e-6,10e-7 -0.429012,0.103087 -1e-6,10e-7 h -1e-6 l -0.402869,0.02518 v 0 0 l -0.247019,0.06448 v 0 10e-7 l -0.182205,0.142562 v 0 0 l -0.156477,0.272568 v 0 l -0.11734,0.194671 v 10e-7 0 l -0.0587,0.294463 z"
       id="path14" />
  </g>
</svg>
